<svg xmlns="http://www.w3.org/2000/svg" xmlns:xlink="http://www.w3.org/1999/xlink" width="500" zoomAndPan="magnify" viewBox="0 0 375 187.499995" height="250" preserveAspectRatio="xMidYMid meet" version="1.0"><defs><g/></defs><g fill="#f2c6de" fill-opacity="1"><g transform="translate(63.046203, 107.541159)"><g><path d="M 0.359375 -1.34375 C 0.359375 -1.90625 0.53125 -2.328125 0.875 -2.609375 C 1.226562 -2.890625 1.710938 -3.265625 2.328125 -3.734375 C 2.941406 -4.210938 3.625 -4.96875 4.375 -6 C 4.800781 -6.613281 5.332031 -7.769531 5.96875 -9.46875 C 6.601562 -11.164062 7.296875 -13.144531 8.046875 -15.40625 C 8.804688 -17.664062 9.570312 -19.992188 10.34375 -22.390625 C 11.125 -24.796875 11.84375 -27.007812 12.5 -29.03125 C 12.875 -30.113281 13.015625 -30.898438 12.921875 -31.390625 C 12.828125 -31.890625 12.628906 -32.269531 12.328125 -32.53125 C 12.023438 -32.789062 11.742188 -33.023438 11.484375 -33.234375 C 11.222656 -33.441406 11.09375 -33.785156 11.09375 -34.265625 C 11.09375 -34.921875 11.382812 -35.332031 11.96875 -35.5 C 12.5625 -35.664062 13.234375 -35.75 13.984375 -35.75 C 14.878906 -35.75 15.5625 -35.675781 16.03125 -35.53125 C 16.5 -35.382812 17.347656 -35.3125 18.578125 -35.3125 C 19.941406 -35.3125 21 -35.382812 21.75 -35.53125 C 22.507812 -35.675781 23.242188 -35.75 23.953125 -35.75 C 24.460938 -35.75 24.894531 -35.675781 25.25 -35.53125 C 25.601562 -35.382812 25.945312 -34.914062 26.28125 -34.125 C 26.695312 -33.132812 27.234375 -31.585938 27.890625 -29.484375 C 28.554688 -27.390625 29.273438 -25.070312 30.046875 -22.53125 C 30.828125 -19.988281 31.617188 -17.476562 32.421875 -15 C 33.222656 -12.53125 33.976562 -10.378906 34.6875 -8.546875 C 35.394531 -6.710938 35.984375 -5.488281 36.453125 -4.875 C 37.253906 -3.882812 37.890625 -3.222656 38.359375 -2.890625 C 38.828125 -2.566406 39.0625 -2.050781 39.0625 -1.34375 C 39.0625 -0.632812 38.828125 -0.164062 38.359375 0.0625 C 37.890625 0.300781 37.253906 0.421875 36.453125 0.421875 C 35.554688 0.421875 34.484375 0.347656 33.234375 0.203125 C 31.984375 0.0664062 30.628906 0 29.171875 0 C 28.460938 0 27.601562 0.0664062 26.59375 0.203125 C 25.582031 0.347656 24.609375 0.421875 23.671875 0.421875 C 22.816406 0.421875 22.09375 0.300781 21.5 0.0625 C 20.914062 -0.164062 20.625 -0.632812 20.625 -1.34375 C 20.625 -2.050781 20.773438 -2.554688 21.078125 -2.859375 C 21.390625 -3.160156 21.6875 -3.59375 21.96875 -4.15625 C 22.25 -4.726562 22.390625 -5.695312 22.390625 -7.0625 C 22.390625 -8.144531 22.128906 -8.992188 21.609375 -9.609375 C 21.097656 -10.222656 20.441406 -10.53125 19.640625 -10.53125 L 13.140625 -10.53125 C 12.335938 -10.53125 11.675781 -10.222656 11.15625 -9.609375 C 10.644531 -8.992188 10.390625 -8.144531 10.390625 -7.0625 C 10.390625 -5.695312 10.578125 -4.707031 10.953125 -4.09375 C 11.328125 -3.476562 11.703125 -3.003906 12.078125 -2.671875 C 12.453125 -2.347656 12.640625 -1.90625 12.640625 -1.34375 C 12.640625 -0.6875 12.378906 -0.226562 11.859375 0.03125 C 11.347656 0.289062 10.765625 0.421875 10.109375 0.421875 C 9.304688 0.421875 8.679688 0.347656 8.234375 0.203125 C 7.785156 0.0664062 7.207031 0 6.5 0 C 5.789062 0 5.210938 0.0664062 4.765625 0.203125 C 4.316406 0.347656 3.691406 0.421875 2.890625 0.421875 C 2.234375 0.421875 1.644531 0.289062 1.125 0.03125 C 0.613281 -0.226562 0.359375 -0.6875 0.359375 -1.34375 Z M 12.359375 -15.609375 C 11.984375 -14.523438 12.335938 -13.984375 13.421875 -13.984375 L 19.140625 -13.984375 C 20.222656 -13.984375 20.578125 -14.523438 20.203125 -15.609375 C 19.585938 -17.398438 19 -19.269531 18.4375 -21.21875 C 17.875 -23.175781 17.40625 -24.816406 17.03125 -26.140625 C 16.832031 -26.753906 16.617188 -27.0625 16.390625 -27.0625 C 16.203125 -27.0625 15.988281 -26.773438 15.75 -26.203125 C 15.28125 -24.890625 14.757812 -23.242188 14.1875 -21.265625 C 13.625 -19.285156 13.015625 -17.398438 12.359375 -15.609375 Z M 12.359375 -15.609375 "/></g></g></g><g fill="#dbcdf0" fill-opacity="1"><g transform="translate(102.468876, 107.541159)"><g><path d="M 8.765625 0 C 8.054688 0 7.21875 0.0664062 6.25 0.203125 C 5.28125 0.347656 4.375 0.421875 3.53125 0.421875 C 2.726562 0.421875 2.054688 0.300781 1.515625 0.0625 C 0.972656 -0.164062 0.703125 -0.632812 0.703125 -1.34375 C 0.703125 -1.863281 0.816406 -2.25 1.046875 -2.5 C 1.285156 -2.757812 1.570312 -3.085938 1.90625 -3.484375 C 2.238281 -3.890625 2.519531 -4.515625 2.75 -5.359375 C 2.988281 -6.210938 3.109375 -7.460938 3.109375 -9.109375 C 3.109375 -10.710938 3.109375 -12.570312 3.109375 -14.6875 C 3.109375 -16.8125 3.117188 -18.921875 3.140625 -21.015625 C 3.160156 -23.109375 3.171875 -24.921875 3.171875 -26.453125 C 3.171875 -27.984375 3.171875 -28.960938 3.171875 -29.390625 C 3.171875 -30.660156 2.972656 -31.519531 2.578125 -31.96875 C 2.179688 -32.414062 1.78125 -32.78125 1.375 -33.0625 C 0.976562 -33.34375 0.78125 -33.835938 0.78125 -34.546875 C 0.78125 -35.253906 1.015625 -35.734375 1.484375 -35.984375 C 1.953125 -36.242188 2.617188 -36.46875 3.484375 -36.65625 C 4.359375 -36.84375 5.410156 -37.148438 6.640625 -37.578125 C 8.148438 -38.140625 9.1875 -38.644531 9.75 -39.09375 C 10.3125 -39.539062 10.734375 -39.90625 11.015625 -40.1875 C 11.296875 -40.476562 11.742188 -40.625 12.359375 -40.625 C 13.210938 -40.625 13.78125 -40.242188 14.0625 -39.484375 C 14.34375 -38.734375 14.484375 -37.835938 14.484375 -36.796875 L 14.484375 -24.796875 C 14.484375 -24.046875 14.539062 -23.679688 14.65625 -23.703125 C 14.769531 -23.722656 15.003906 -23.976562 15.359375 -24.46875 C 15.710938 -24.96875 16.179688 -25.546875 16.765625 -26.203125 C 17.359375 -26.867188 18.125 -27.445312 19.0625 -27.9375 C 20.007812 -28.4375 21.164062 -28.6875 22.53125 -28.6875 C 24.9375 -28.6875 26.9375 -27.976562 28.53125 -26.5625 C 30.132812 -25.144531 31.335938 -23.34375 32.140625 -21.15625 C 32.941406 -18.96875 33.328125 -16.625 33.296875 -14.125 C 33.273438 -11.632812 32.84375 -9.289062 32 -7.09375 C 31.15625 -4.90625 29.859375 -3.101562 28.109375 -1.6875 C 26.367188 -0.28125 24.203125 0.421875 21.609375 0.421875 C 19.546875 0.421875 17.957031 0.394531 16.84375 0.34375 C 15.738281 0.300781 14.851562 0.253906 14.1875 0.203125 C 13.53125 0.160156 12.8125 0.113281 12.03125 0.0625 C 11.257812 0.0195312 10.171875 0 8.765625 0 Z M 17.9375 -20.703125 C 16.625 -20.703125 15.660156 -19.898438 15.046875 -18.296875 C 14.429688 -16.691406 14.125 -14.832031 14.125 -12.71875 C 14.125 -10.59375 14.441406 -8.773438 15.078125 -7.265625 C 15.710938 -5.765625 16.664062 -5.015625 17.9375 -5.015625 C 19.207031 -5.015625 20.160156 -5.78125 20.796875 -7.3125 C 21.429688 -8.84375 21.75 -10.664062 21.75 -12.78125 C 21.75 -14.90625 21.429688 -16.753906 20.796875 -18.328125 C 20.160156 -19.910156 19.207031 -20.703125 17.9375 -20.703125 Z M 17.9375 -20.703125 "/></g></g></g><g fill="#c6def1" fill-opacity="1"><g transform="translate(137.2307, 107.541159)"><g><path d="M 16.734375 0.421875 C 12.023438 0.421875 8.289062 -0.859375 5.53125 -3.421875 C 2.78125 -5.992188 1.40625 -9.5625 1.40625 -14.125 C 1.40625 -18.738281 2.78125 -22.316406 5.53125 -24.859375 C 8.289062 -27.410156 12.023438 -28.6875 16.734375 -28.6875 C 21.453125 -28.6875 25.1875 -27.410156 27.9375 -24.859375 C 30.695312 -22.316406 32.078125 -18.738281 32.078125 -14.125 C 32.078125 -9.5625 30.695312 -5.992188 27.9375 -3.421875 C 25.1875 -0.859375 21.453125 0.421875 16.734375 0.421875 Z M 13.0625 -14.125 C 13.0625 -12.195312 13.164062 -10.421875 13.375 -8.796875 C 13.59375 -7.171875 13.972656 -5.882812 14.515625 -4.9375 C 15.054688 -4 15.796875 -3.53125 16.734375 -3.53125 C 17.722656 -3.53125 18.488281 -4 19.03125 -4.9375 C 19.570312 -5.882812 19.9375 -7.171875 20.125 -8.796875 C 20.320312 -10.421875 20.421875 -12.195312 20.421875 -14.125 C 20.421875 -16.101562 20.320312 -17.894531 20.125 -19.5 C 19.9375 -21.101562 19.570312 -22.375 19.03125 -23.3125 C 18.488281 -24.25 17.722656 -24.71875 16.734375 -24.71875 C 15.796875 -24.71875 15.054688 -24.25 14.515625 -23.3125 C 13.972656 -22.375 13.59375 -21.101562 13.375 -19.5 C 13.164062 -17.894531 13.0625 -16.101562 13.0625 -14.125 Z M 13.0625 -14.125 "/></g></g></g><g fill="#c9e4de" fill-opacity="1"><g transform="translate(170.71762, 107.541159)"><g><path d="M 0.703125 -22.609375 C 0.703125 -23.316406 0.9375 -23.796875 1.40625 -24.046875 C 1.882812 -24.304688 2.554688 -24.53125 3.421875 -24.71875 C 4.296875 -24.90625 5.34375 -25.210938 6.5625 -25.640625 C 8.070312 -26.203125 9.109375 -26.707031 9.671875 -27.15625 C 10.242188 -27.601562 10.671875 -27.96875 10.953125 -28.25 C 11.234375 -28.539062 11.679688 -28.6875 12.296875 -28.6875 C 13.140625 -28.6875 13.703125 -28.304688 13.984375 -27.546875 C 14.265625 -26.796875 14.40625 -25.898438 14.40625 -24.859375 C 14.457031 -23.398438 14.492188 -22.210938 14.515625 -21.296875 C 14.535156 -20.378906 14.546875 -19.191406 14.546875 -17.734375 L 14.546875 -14.265625 C 14.546875 -11.296875 14.804688 -9.28125 15.328125 -8.21875 C 15.847656 -7.164062 16.648438 -6.640625 17.734375 -6.640625 C 18.816406 -6.640625 19.59375 -7.164062 20.0625 -8.21875 C 20.53125 -9.28125 20.765625 -11.320312 20.765625 -14.34375 L 20.765625 -17.734375 C 20.765625 -18.910156 20.5625 -19.734375 20.15625 -20.203125 C 19.757812 -20.671875 19.359375 -21.046875 18.953125 -21.328125 C 18.554688 -21.609375 18.359375 -22.035156 18.359375 -22.609375 C 18.359375 -23.316406 18.59375 -23.796875 19.0625 -24.046875 C 19.539062 -24.304688 20.210938 -24.53125 21.078125 -24.71875 C 21.953125 -24.90625 23.003906 -25.210938 24.234375 -25.640625 C 25.734375 -26.203125 26.765625 -26.707031 27.328125 -27.15625 C 27.898438 -27.601562 28.328125 -27.96875 28.609375 -28.25 C 28.890625 -28.539062 29.335938 -28.6875 29.953125 -28.6875 C 30.796875 -28.6875 31.359375 -28.304688 31.640625 -27.546875 C 31.929688 -26.796875 32.078125 -25.898438 32.078125 -24.859375 L 32.140625 -19.140625 C 32.140625 -17.023438 32.148438 -15.332031 32.171875 -14.0625 C 32.203125 -12.789062 32.21875 -11.773438 32.21875 -11.015625 C 32.21875 -10.265625 32.21875 -9.609375 32.21875 -9.046875 C 32.21875 -7.390625 32.332031 -6.140625 32.5625 -5.296875 C 32.800781 -4.453125 33.082031 -3.828125 33.40625 -3.421875 C 33.738281 -3.023438 34.019531 -2.695312 34.25 -2.4375 C 34.488281 -2.175781 34.609375 -1.785156 34.609375 -1.265625 C 34.609375 -0.566406 34.40625 -0.0976562 34 0.140625 C 33.601562 0.378906 33.078125 0.5 32.421875 0.5 C 31.765625 0.5 31 0.425781 30.125 0.28125 C 29.257812 0.144531 28.425781 0.078125 27.625 0.078125 C 26.863281 0.078125 26.210938 0.109375 25.671875 0.171875 C 25.128906 0.242188 24.554688 0.328125 23.953125 0.421875 C 23.054688 0.515625 22.320312 0.351562 21.75 -0.0625 C 21.1875 -0.488281 20.859375 -1.101562 20.765625 -1.90625 C 20.578125 -3.320312 20.363281 -4.03125 20.125 -4.03125 C 19.894531 -4.03125 19.304688 -3.535156 18.359375 -2.546875 C 17.609375 -1.742188 16.515625 -1.046875 15.078125 -0.453125 C 13.640625 0.128906 12.285156 0.421875 11.015625 0.421875 C 8.847656 0.421875 7.1875 -0.046875 6.03125 -0.984375 C 4.882812 -1.929688 4.109375 -3.109375 3.703125 -4.515625 C 3.304688 -5.929688 3.109375 -7.367188 3.109375 -8.828125 L 3.109375 -17.453125 C 3.109375 -18.722656 2.90625 -19.601562 2.5 -20.09375 C 2.101562 -20.59375 1.703125 -20.984375 1.296875 -21.265625 C 0.898438 -21.546875 0.703125 -21.992188 0.703125 -22.609375 Z M 0.703125 -22.609375 "/></g></g></g><g fill="#faedcb" fill-opacity="1"><g transform="translate(205.264203, 107.541159)"><g><path d="M 0.703125 -26.5625 C 0.703125 -27.269531 0.9375 -27.738281 1.40625 -27.96875 C 1.882812 -28.207031 2.546875 -28.441406 3.390625 -28.671875 C 4.234375 -28.910156 5.222656 -29.382812 6.359375 -30.09375 C 7.867188 -31.03125 8.953125 -31.9375 9.609375 -32.8125 C 10.265625 -33.6875 10.78125 -34.394531 11.15625 -34.9375 C 11.53125 -35.476562 12.023438 -35.75 12.640625 -35.75 C 13.492188 -35.75 14 -35.320312 14.15625 -34.46875 C 14.320312 -33.625 14.40625 -32.679688 14.40625 -31.640625 L 14.40625 -29.03125 C 14.40625 -28.507812 14.664062 -28.25 15.1875 -28.25 L 16.3125 -28.25 C 17.488281 -28.25 18.078125 -27.660156 18.078125 -26.484375 C 18.078125 -25.265625 17.488281 -24.65625 16.3125 -24.65625 L 15.1875 -24.65625 C 14.664062 -24.65625 14.40625 -24.394531 14.40625 -23.875 L 14.40625 -15.609375 C 14.40625 -12.597656 14.441406 -10.410156 14.515625 -9.046875 C 14.585938 -7.679688 14.953125 -6.664062 15.609375 -6 C 16.035156 -5.625 16.390625 -5.390625 16.671875 -5.296875 C 16.953125 -5.203125 17.160156 -5.082031 17.296875 -4.9375 C 17.441406 -4.800781 17.515625 -4.472656 17.515625 -3.953125 C 17.515625 -3.054688 17.007812 -2.101562 16 -1.09375 C 14.988281 -0.0820312 13.210938 0.421875 10.671875 0.421875 C 7.703125 0.421875 5.6875 -0.644531 4.625 -2.78125 C 3.5625 -4.925781 3.03125 -7.71875 3.03125 -11.15625 L 3.109375 -21.40625 C 3.109375 -22.675781 2.90625 -23.554688 2.5 -24.046875 C 2.101562 -24.546875 1.703125 -24.9375 1.296875 -25.21875 C 0.898438 -25.5 0.703125 -25.945312 0.703125 -26.5625 Z M 0.703125 -26.5625 "/></g></g></g><g fill="#000000" fill-opacity="1"><g transform="translate(223.708914, 107.541159)"><g/></g></g><g fill="#f7d9c4" fill-opacity="1"><g transform="translate(234.305517, 107.541159)"><g><path d="M 0.703125 -34.1875 C 0.703125 -34.84375 0.945312 -35.265625 1.4375 -35.453125 C 1.9375 -35.648438 2.5625 -35.75 3.3125 -35.75 C 4.207031 -35.75 5.1875 -35.675781 6.25 -35.53125 C 7.3125 -35.382812 8.289062 -35.3125 9.1875 -35.3125 C 10.175781 -35.3125 11.082031 -35.394531 11.90625 -35.5625 C 12.726562 -35.726562 13.515625 -35.8125 14.265625 -35.8125 C 15.066406 -35.8125 15.804688 -35.585938 16.484375 -35.140625 C 17.171875 -34.691406 17.773438 -33.785156 18.296875 -32.421875 C 18.296875 -32.421875 18.632812 -31.375 19.3125 -29.28125 C 20 -27.1875 20.882812 -24.582031 21.96875 -21.46875 C 22.34375 -20.4375 22.71875 -20.4375 23.09375 -21.46875 C 24.226562 -24.582031 25.125 -27.1875 25.78125 -29.28125 C 26.4375 -31.375 26.765625 -32.421875 26.765625 -32.421875 C 27.285156 -33.785156 27.875 -34.691406 28.53125 -35.140625 C 29.195312 -35.585938 29.90625 -35.8125 30.65625 -35.8125 C 31.3125 -35.8125 31.992188 -35.726562 32.703125 -35.5625 C 33.410156 -35.394531 34.140625 -35.3125 34.890625 -35.3125 C 35.835938 -35.3125 36.828125 -35.382812 37.859375 -35.53125 C 38.898438 -35.675781 39.867188 -35.75 40.765625 -35.75 C 41.554688 -35.75 42.1875 -35.648438 42.65625 -35.453125 C 43.132812 -35.265625 43.375 -34.84375 43.375 -34.1875 C 43.375 -33.570312 43.253906 -33.097656 43.015625 -32.765625 C 42.785156 -32.441406 42.503906 -32.09375 42.171875 -31.71875 C 41.835938 -31.34375 41.550781 -30.742188 41.3125 -29.921875 C 41.082031 -29.097656 40.96875 -27.859375 40.96875 -26.203125 L 40.96875 -9.109375 C 40.96875 -7.460938 41.082031 -6.210938 41.3125 -5.359375 C 41.550781 -4.515625 41.835938 -3.890625 42.171875 -3.484375 C 42.503906 -3.085938 42.785156 -2.757812 43.015625 -2.5 C 43.253906 -2.25 43.375 -1.863281 43.375 -1.34375 C 43.375 -0.632812 43.101562 -0.164062 42.5625 0.0625 C 42.019531 0.300781 41.347656 0.421875 40.546875 0.421875 C 39.703125 0.421875 38.796875 0.347656 37.828125 0.203125 C 36.859375 0.0664062 36.019531 0 35.3125 0 C 34.613281 0 33.78125 0.0664062 32.8125 0.203125 C 31.84375 0.347656 30.9375 0.421875 30.09375 0.421875 C 29.289062 0.421875 28.617188 0.300781 28.078125 0.0625 C 27.535156 -0.164062 27.265625 -0.632812 27.265625 -1.34375 C 27.265625 -1.863281 27.378906 -2.25 27.609375 -2.5 C 27.847656 -2.757812 28.132812 -3.085938 28.46875 -3.484375 C 28.800781 -3.890625 29.082031 -4.515625 29.3125 -5.359375 C 29.550781 -6.210938 29.671875 -7.460938 29.671875 -9.109375 C 29.671875 -9.960938 29.671875 -11.09375 29.671875 -12.5 C 29.671875 -13.914062 29.65625 -15.4375 29.625 -17.0625 C 29.601562 -18.6875 29.59375 -20.296875 29.59375 -21.890625 C 29.59375 -23.492188 29.59375 -24.882812 29.59375 -26.0625 C 29.59375 -26.15625 29.519531 -26.25 29.375 -26.34375 C 29.238281 -26.4375 29.125 -26.367188 29.03125 -26.140625 C 28.695312 -25.097656 28.210938 -23.644531 27.578125 -21.78125 C 26.941406 -19.925781 26.25 -17.878906 25.5 -15.640625 C 24.75 -13.410156 23.972656 -11.140625 23.171875 -8.828125 C 22.367188 -6.523438 21.640625 -4.40625 20.984375 -2.46875 C 20.648438 -1.4375 20.316406 -0.695312 19.984375 -0.25 C 19.660156 0.195312 19.171875 0.421875 18.515625 0.421875 C 18.035156 0.421875 17.617188 0.164062 17.265625 -0.34375 C 16.910156 -0.863281 16.570312 -1.570312 16.25 -2.46875 C 15.539062 -4.40625 14.804688 -6.515625 14.046875 -8.796875 C 13.296875 -11.078125 12.546875 -13.347656 11.796875 -15.609375 C 11.046875 -17.867188 10.375 -19.925781 9.78125 -21.78125 C 9.195312 -23.644531 8.710938 -25.097656 8.328125 -26.140625 C 8.285156 -26.367188 8.179688 -26.4375 8.015625 -26.34375 C 7.847656 -26.25 7.765625 -26.15625 7.765625 -26.0625 L 7.765625 -9.109375 C 7.765625 -7.460938 7.882812 -6.191406 8.125 -5.296875 C 8.363281 -4.398438 8.644531 -3.726562 8.96875 -3.28125 C 9.300781 -2.832031 9.582031 -2.457031 9.8125 -2.15625 C 10.050781 -1.851562 10.171875 -1.441406 10.171875 -0.921875 C 10.171875 -0.398438 10.03125 -0.046875 9.75 0.140625 C 9.46875 0.328125 9.113281 0.421875 8.6875 0.421875 C 8.164062 0.421875 7.585938 0.347656 6.953125 0.203125 C 6.316406 0.0664062 5.765625 0 5.296875 0 C 4.828125 0 4.304688 0.0664062 3.734375 0.203125 C 3.171875 0.347656 2.632812 0.421875 2.125 0.421875 C 1.738281 0.421875 1.40625 0.328125 1.125 0.140625 C 0.84375 -0.046875 0.703125 -0.398438 0.703125 -0.921875 C 0.703125 -1.441406 0.816406 -1.851562 1.046875 -2.15625 C 1.285156 -2.457031 1.570312 -2.832031 1.90625 -3.28125 C 2.238281 -3.726562 2.519531 -4.398438 2.75 -5.296875 C 2.988281 -6.191406 3.109375 -7.460938 3.109375 -9.109375 L 3.109375 -26.203125 C 3.109375 -27.859375 2.988281 -29.097656 2.75 -29.921875 C 2.519531 -30.742188 2.238281 -31.34375 1.90625 -31.71875 C 1.570312 -32.09375 1.285156 -32.441406 1.046875 -32.765625 C 0.816406 -33.097656 0.703125 -33.570312 0.703125 -34.1875 Z M 0.703125 -34.1875 "/></g></g></g><g fill="#f2c6de" fill-opacity="1"><g transform="translate(278.389037, 107.541159)"><g><path d="M 17.03125 0.421875 C 14.53125 0.421875 12.078125 -0.0703125 9.671875 -1.0625 C 7.273438 -2.050781 5.296875 -3.601562 3.734375 -5.71875 C 2.179688 -7.84375 1.40625 -10.625 1.40625 -14.0625 C 1.40625 -16.976562 2.039062 -19.53125 3.3125 -21.71875 C 4.59375 -23.90625 6.363281 -25.613281 8.625 -26.84375 C 10.882812 -28.070312 13.492188 -28.6875 16.453125 -28.6875 C 19.378906 -28.6875 21.757812 -28.332031 23.59375 -27.625 C 25.425781 -26.914062 26.847656 -26.003906 27.859375 -24.890625 C 28.878906 -23.785156 29.578125 -22.65625 29.953125 -21.5 C 30.328125 -20.351562 30.515625 -19.359375 30.515625 -18.515625 C 30.515625 -16.148438 29.785156 -14.226562 28.328125 -12.75 C 26.867188 -11.269531 25.007812 -10.1875 22.75 -9.5 C 20.488281 -8.820312 18.179688 -8.484375 15.828125 -8.484375 C 15.160156 -8.484375 14.675781 -8.242188 14.375 -7.765625 C 14.070312 -7.296875 13.976562 -6.753906 14.09375 -6.140625 C 14.207031 -5.535156 14.582031 -4.992188 15.21875 -4.515625 C 15.851562 -4.046875 16.757812 -3.8125 17.9375 -3.8125 C 19.632812 -3.8125 20.976562 -4.117188 21.96875 -4.734375 C 22.957031 -5.347656 23.742188 -6.050781 24.328125 -6.84375 C 24.921875 -7.644531 25.488281 -8.351562 26.03125 -8.96875 C 26.570312 -9.582031 27.289062 -9.890625 28.1875 -9.890625 C 28.988281 -9.890625 29.585938 -9.640625 29.984375 -9.140625 C 30.390625 -8.648438 30.59375 -8.097656 30.59375 -7.484375 C 30.59375 -5.890625 29.96875 -4.5 28.71875 -3.3125 C 27.46875 -2.132812 25.804688 -1.21875 23.734375 -0.5625 C 21.660156 0.09375 19.425781 0.421875 17.03125 0.421875 Z M 16.453125 -25.078125 C 15.460938 -25.078125 14.671875 -24.488281 14.078125 -23.3125 C 13.492188 -22.132812 13.203125 -20.554688 13.203125 -18.578125 C 13.203125 -16.597656 13.492188 -15.019531 14.078125 -13.84375 C 14.671875 -12.664062 15.460938 -12.078125 16.453125 -12.078125 C 17.441406 -12.078125 18.226562 -12.664062 18.8125 -13.84375 C 19.40625 -15.019531 19.703125 -16.597656 19.703125 -18.578125 C 19.703125 -20.554688 19.40625 -22.132812 18.8125 -23.3125 C 18.226562 -24.488281 17.441406 -25.078125 16.453125 -25.078125 Z M 16.453125 -25.078125 "/></g></g></g><path stroke-linecap="butt" transform="matrix(0.52983, 0, 0, 0.52983, 64.635694, 45.0212)" fill="none" stroke-linejoin="miter" d="M 0.650727 118.460527 C 0.650727 117.398866 0.989868 116.602621 1.660779 116.086535 C 2.33169 115.54096 3.245898 114.825813 4.396031 113.933723 C 5.546164 113.049005 6.836377 111.626085 8.26667 109.672333 C 9.070288 108.522201 10.065596 106.354643 11.259964 103.162287 C 12.454333 99.947813 13.759291 96.209882 15.167467 91.933747 C 16.59776 87.657612 18.057544 83.263515 19.532073 78.751456 C 21.006602 74.209906 22.363169 70.036988 23.601774 66.217958 C 24.31692 64.153617 24.574963 62.65697 24.383274 61.720644 C 24.206331 60.79169 23.830326 60.083916 23.240514 59.604694 C 22.680193 59.110727 22.149362 58.660996 21.648023 58.270245 C 21.168801 57.86475 20.932876 57.208584 20.932876 56.323867 C 20.932876 55.085262 21.485824 54.311135 22.591721 54.008856 C 23.697618 53.68446 24.965713 53.522261 26.396007 53.522261 C 28.091715 53.522261 29.381928 53.662342 30.274018 53.942502 C 31.158736 54.207917 32.7586 54.333252 35.058866 54.333252 C 37.639292 54.333252 39.637279 54.207917 41.045454 53.942502 C 42.475748 53.662342 43.869178 53.522261 45.210999 53.522261 C 46.191561 53.522261 47.002552 53.662342 47.658718 53.942502 C 48.329628 54.207917 48.978421 55.092635 49.605096 56.6114 C 50.408715 58.47668 51.433512 61.388875 52.664744 65.340613 C 53.903349 69.284979 55.252543 73.671703 56.704954 78.486041 C 58.179484 83.285633 59.676131 88.011499 61.194896 92.678384 C 62.713661 97.345269 64.136582 101.41497 65.463658 104.887486 C 66.805479 108.337885 67.926122 110.63815 68.810839 111.788283 C 70.307486 113.653562 71.501855 114.899539 72.393945 115.533587 C 73.286035 116.160262 73.728394 117.140824 73.728394 118.460527 C 73.728394 119.809722 73.286035 120.694439 72.393945 121.129425 C 71.501855 121.586529 70.307486 121.815081 68.810839 121.815081 C 67.122503 121.815081 65.095025 121.675001 62.728406 121.387468 C 60.383905 121.129425 57.832969 120.996718 55.0756 120.996718 C 53.733778 120.996718 52.104423 121.129425 50.194908 121.387468 C 48.285393 121.675001 46.442231 121.815081 44.658051 121.815081 C 43.050814 121.815081 41.70162 121.586529 40.58835 121.129425 C 39.482453 120.694439 38.929505 119.809722 38.929505 118.460527 C 38.929505 117.140824 39.217038 116.18238 39.777359 115.599941 C 40.367171 115.010129 40.920119 114.184393 41.436204 113.122732 C 41.98178 112.061071 42.254568 110.240027 42.254568 107.652228 C 42.254568 105.617378 41.760601 104.017514 40.787412 102.867381 C 39.80685 101.717248 38.575618 101.142182 37.078971 101.142182 L 24.803515 101.142182 C 23.28475 101.142182 22.038773 101.717248 21.058211 102.867381 C 20.085022 104.017514 19.598427 105.617378 19.598427 107.652228 C 19.598427 110.240027 19.952314 112.112679 20.667461 113.28493 C 21.382607 114.435063 22.090381 115.327153 22.78341 115.953828 C 23.498557 116.565757 23.859816 117.398866 23.859816 118.460527 C 23.859816 119.72125 23.373222 120.591222 22.39266 121.063072 C 21.41947 121.564411 20.313574 121.815081 19.074969 121.815081 C 17.556204 121.815081 16.376581 121.675001 15.528726 121.387468 C 14.680872 121.129425 13.597093 120.996718 12.270017 120.996718 C 10.928195 120.996718 9.829671 121.129425 8.981817 121.387468 C 8.15608 121.675001 6.991202 121.815081 5.465065 121.815081 C 4.233833 121.815081 3.11319 121.564411 2.117883 121.063072 C 1.137321 120.591222 0.650727 119.72125 0.650727 118.460527 Z M 23.336358 91.542997 C 22.621212 93.577847 23.28475 94.602645 25.326973 94.602645 L 36.135272 94.602645 C 38.170122 94.602645 38.83366 93.577847 38.118514 91.542997 C 36.968381 88.158952 35.862484 84.620082 34.800823 80.926387 C 33.731789 77.240064 32.847072 74.150925 32.124553 71.651598 C 31.778038 70.501465 31.379915 69.926399 30.922811 69.926399 C 30.576297 69.926399 30.178174 70.457229 29.72107 71.51889 C 28.82898 74.018217 27.85579 77.129474 26.786757 80.867405 C 25.725096 84.597964 24.574963 88.158952 23.336358 91.542997 Z M 90.93615 120.996718 C 89.586956 120.996718 88.001837 121.129425 86.180793 121.387468 C 84.381867 121.675001 82.678786 121.815081 81.071549 121.815081 C 79.552784 121.815081 78.284689 121.586529 77.259891 121.129425 C 76.242466 120.694439 75.733754 119.809722 75.733754 118.460527 C 75.733754 117.487338 75.94756 116.757446 76.382547 116.278224 C 76.839651 115.784257 77.370481 115.150209 77.975038 114.390827 C 78.609086 113.631444 79.139916 112.459194 79.574902 110.874075 C 80.032006 109.274211 80.253186 106.914964 80.253186 103.81108 C 80.253186 100.77355 80.253186 97.256798 80.253186 93.268196 C 80.253186 89.272222 80.275304 85.305738 80.31954 81.354 C 80.363775 77.380144 80.385893 73.951863 80.385893 71.069159 C 80.385893 68.179082 80.385893 66.33592 80.385893 65.532302 C 80.385893 63.121447 80.009888 61.506837 79.250506 60.681101 C 78.505869 59.833246 77.761231 59.140218 77.001849 58.602014 C 76.242466 58.056439 75.859089 57.120113 75.859089 55.800409 C 75.859089 54.473333 76.30882 53.57387 77.193538 53.094648 C 78.085628 52.600681 79.353723 52.173067 81.005196 51.826553 C 82.656668 51.457921 84.632537 50.875481 86.932803 50.071863 C 89.771272 49.010202 91.725023 48.051758 92.786684 47.203904 C 93.848345 46.363422 94.651963 45.677766 95.197539 45.154308 C 95.743115 44.616105 96.583597 44.343317 97.733729 44.343317 C 99.340966 44.343317 100.402627 45.058464 100.926085 46.488757 C 101.471661 47.904305 101.737076 49.585268 101.737076 51.53902 L 101.737076 74.187788 C 101.737076 75.625454 101.847666 76.318483 102.068845 76.274247 C 102.282652 76.230011 102.725011 75.743416 103.403294 74.80709 C 104.074205 73.878137 104.966295 72.794358 106.072192 71.555754 C 107.178089 70.295031 108.615755 69.196507 110.399935 68.267553 C 112.176743 67.331227 114.359046 66.866751 116.939472 66.866751 C 121.47365 66.866751 125.255817 68.2012 128.271229 70.870097 C 131.286641 73.538995 133.542671 76.945158 135.039318 81.088585 C 136.558083 85.217267 137.295348 89.633482 137.251112 94.33723 C 137.206876 99.048351 136.388512 103.479311 134.781276 107.622738 C 133.196157 111.744047 130.755811 115.142837 127.452865 117.811735 C 124.179411 120.480632 120.087592 121.815081 115.184783 121.815081 C 111.27728 121.815081 108.283986 121.7561 106.197527 121.652883 C 104.118441 121.564411 102.44485 121.47594 101.184128 121.387468 C 99.952896 121.306369 98.596329 121.217897 97.114427 121.129425 C 95.662016 121.040954 93.605048 120.996718 90.93615 120.996718 Z M 108.247123 81.936439 C 105.777286 81.936439 103.956243 83.447832 102.783992 86.463244 C 101.633859 89.478656 101.058793 92.995408 101.058793 97.006128 C 101.058793 101.002102 101.655977 104.423009 102.850346 107.261478 C 104.05946 110.10732 105.865758 111.53024 108.247123 111.53024 C 110.657978 111.53024 112.456903 110.085202 113.651272 107.195124 C 114.867759 104.31242 115.479688 100.869394 115.479688 96.880793 C 115.479688 92.862701 114.867759 89.368066 113.651272 86.39689 C 112.456903 83.425714 110.657978 81.936439 108.247123 81.936439 Z M 171.60027 121.815081 C 162.701486 121.815081 155.653236 119.396854 150.440776 114.553025 C 145.257806 109.694451 142.662634 102.955853 142.662634 94.33723 C 142.662634 85.615389 145.257806 78.854673 150.440776 74.062453 C 155.653236 69.262861 162.701486 66.866751 171.60027 66.866751 C 180.476936 66.866751 187.517813 69.262861 192.730273 74.062453 C 197.935361 78.854673 200.537905 85.615389 200.537905 94.33723 C 200.537905 102.955853 197.935361 109.694451 192.730273 114.553025 C 187.517813 119.396854 180.476936 121.815081 171.60027 121.815081 Z M 164.669983 94.33723 C 164.669983 97.98669 164.861671 101.341243 165.252422 104.400892 C 165.66529 107.46054 166.380436 109.878768 167.405234 111.655575 C 168.422659 113.439756 169.823462 114.324473 171.60027 114.324473 C 173.465549 114.324473 174.910588 113.439756 175.928013 111.655575 C 176.952811 109.878768 177.631094 107.46054 177.984981 104.400892 C 178.353614 101.341243 178.53793 97.98669 178.53793 94.33723 C 178.53793 90.606671 178.353614 87.229999 177.984981 84.214587 C 177.631094 81.177057 176.952811 78.773574 175.928013 76.989394 C 174.910588 75.212586 173.465549 74.320496 171.60027 74.320496 C 169.823462 74.320496 168.422659 75.212586 167.405234 76.989394 C 166.380436 78.773574 165.66529 81.177057 165.252422 84.214587 C 164.861671 87.229999 164.669983 90.606671 164.669983 94.33723 Z M 204.526507 78.323843 C 204.526507 77.004139 204.968866 76.097303 205.860956 75.625454 C 206.753046 75.124114 208.006396 74.703873 209.635751 74.357359 C 211.287223 73.988727 213.270465 73.398915 215.592849 72.595297 C 218.43869 71.533636 220.392441 70.575192 221.454102 69.73471 C 222.515763 68.886856 223.312009 68.2012 223.828094 67.677742 C 224.37367 67.139539 225.228897 66.866751 226.401148 66.866751 C 227.986267 66.866751 229.047928 67.581897 229.593503 69.012191 C 230.131707 70.427739 230.404494 72.108702 230.404494 74.062453 C 230.492966 76.819823 230.55932 79.061107 230.603556 80.801052 C 230.640419 82.533623 230.662537 84.78228 230.662537 87.53965 L 230.662537 94.079187 C 230.662537 99.682398 231.156504 103.479311 232.129694 105.469925 C 233.110256 107.467912 234.614275 108.470592 236.656498 108.470592 C 238.691349 108.470592 240.158505 107.467912 241.050595 105.469925 C 241.942685 103.479311 242.385044 99.638162 242.385044 93.946479 L 242.385044 87.53965 C 242.385044 85.320484 242.001667 83.772228 241.242284 82.880138 C 240.505019 81.99542 239.760382 81.280274 239.001 80.734698 C 238.241617 80.189122 237.85824 79.385504 237.85824 78.323843 C 237.85824 77.004139 238.300598 76.097303 239.192688 75.625454 C 240.084779 75.124114 241.345501 74.703873 242.967483 74.357359 C 244.618956 73.988727 246.602198 73.398915 248.924581 72.595297 C 251.770423 71.533636 253.724174 70.575192 254.785835 69.73471 C 255.847496 68.886856 256.643742 68.2012 257.159827 67.677742 C 257.705403 67.139539 258.56063 66.866751 259.73288 66.866751 C 261.317999 66.866751 262.37966 67.581897 262.925236 69.012191 C 263.463439 70.427739 263.736227 72.108702 263.736227 74.062453 L 263.868935 84.870752 C 263.868935 88.859354 263.891053 92.059082 263.935288 94.469937 C 263.979524 96.858675 264.001642 98.76819 264.001642 100.198483 C 264.001642 101.628777 264.001642 102.882126 264.001642 103.943787 C 264.001642 107.047671 264.215449 109.399546 264.650435 111.006782 C 265.107539 112.614019 265.63837 113.793643 266.242927 114.553025 C 266.876974 115.29029 267.407805 115.909592 267.835418 116.410932 C 268.292522 116.890154 268.521074 117.612673 268.521074 118.593235 C 268.521074 119.935057 268.145069 120.827147 267.385687 121.262133 C 266.626304 121.719237 265.623624 121.940416 264.38502 121.940416 C 263.153788 121.940416 261.708749 121.800336 260.057277 121.520176 C 258.413177 121.262133 256.83543 121.129425 255.338783 121.129425 C 253.90849 121.129425 252.684631 121.195779 251.659833 121.328487 C 250.642408 121.453822 249.558629 121.61602 248.408496 121.815081 C 246.712787 121.984652 245.32673 121.675001 244.242951 120.871383 C 243.173917 120.067764 242.554615 118.902886 242.385044 117.384121 C 242.03853 114.737341 241.633034 113.417638 241.17593 113.417638 C 240.748317 113.417638 239.64242 114.346591 237.85824 116.21187 C 236.427946 117.71589 234.356233 119.028221 231.643099 120.156236 C 228.952083 121.262133 226.401148 121.815081 223.990292 121.815081 C 219.913219 121.815081 216.779845 120.922991 214.582796 119.146184 C 212.415238 117.362003 210.948082 115.142837 210.188699 112.473939 C 209.429317 109.805041 209.053312 107.091907 209.053312 104.334538 L 209.053312 88.055735 C 209.053312 85.674371 208.669934 84.008153 207.910551 83.079199 C 207.173287 82.142873 206.42865 81.420354 205.669267 80.896896 C 204.909885 80.35132 204.526507 79.496093 204.526507 78.323843 Z M 269.722816 70.870097 C 269.722816 69.528276 270.172547 68.636186 271.057265 68.2012 C 271.949355 67.766213 273.187959 67.331227 274.773078 66.896241 C 276.372942 66.44651 278.252967 65.547047 280.398407 64.197853 C 283.244248 62.421045 285.286471 60.717964 286.517703 59.088609 C 287.756308 57.437136 288.73687 56.102687 289.452016 55.085262 C 290.167163 54.045719 291.096116 53.522261 292.246249 53.522261 C 293.853486 53.522261 294.81193 54.32588 295.114208 55.933117 C 295.438605 57.532981 295.600803 59.317161 295.600803 61.270912 L 295.600803 66.217958 C 295.600803 67.191147 296.087398 67.677742 297.06796 67.677742 L 299.183909 67.677742 C 301.417821 67.677742 302.538463 68.791011 302.538463 71.002805 C 302.538463 73.303071 301.417821 74.453203 299.183909 74.453203 L 297.06796 74.453203 C 296.087398 74.453203 295.600803 74.947171 295.600803 75.949851 L 295.600803 91.542997 C 295.600803 97.227307 295.667157 101.363361 295.799865 103.943787 C 295.9252 106.502096 296.610856 108.411611 297.84946 109.672333 C 298.653079 110.38748 299.316617 110.829839 299.832702 111.006782 C 300.378278 111.183726 300.776401 111.404905 301.041816 111.692438 C 301.321976 111.950481 301.462057 112.569783 301.462057 113.542973 C 301.462057 115.216563 300.503613 117.015489 298.594097 118.947122 C 296.684582 120.856637 293.322656 121.815081 288.508318 121.815081 C 282.905107 121.815081 279.108194 119.794976 277.110207 115.762139 C 275.119593 111.699811 274.116913 106.428369 274.116913 99.940441 L 274.24962 80.60199 C 274.24962 78.198508 273.866243 76.524917 273.10686 75.588591 C 272.369596 74.659638 271.624958 73.929746 270.865576 73.41366 C 270.106193 72.868085 269.722816 72.02023 269.722816 70.870097 Z M 324.523693 56.486065 C 324.523693 55.225343 324.98817 54.421724 325.924496 54.07521 C 326.85345 53.706578 328.040446 53.522261 329.470739 53.522261 C 331.14433 53.522261 332.972746 53.662342 334.970733 53.942502 C 336.990838 54.207917 338.833999 54.333252 340.50759 54.333252 C 342.372869 54.333252 344.083323 54.1858 345.646324 53.876148 C 347.209325 53.551752 348.6986 53.389554 350.106775 53.389554 C 351.62554 53.389554 353.026343 53.817167 354.309183 54.657649 C 355.606769 55.505503 356.749529 57.22333 357.722718 59.803756 C 357.722718 59.803756 358.364139 61.779625 359.646979 65.731363 C 360.944565 69.675729 362.618155 74.593284 364.660378 80.476655 C 365.375525 82.430406 366.075926 82.430406 366.776328 80.476655 C 368.921768 74.593284 370.617476 69.675729 371.848708 65.731363 C 373.087313 61.779625 373.706615 59.803756 373.706615 59.803756 C 374.687177 57.22333 375.793074 55.505503 377.024306 54.657649 C 378.285028 53.817167 379.634222 53.389554 381.064516 53.389554 C 382.30312 53.389554 383.578588 53.551752 384.905664 53.876148 C 386.247486 54.1858 387.626171 54.333252 389.041719 54.333252 C 390.818526 54.333252 392.683806 54.207917 394.637557 53.942502 C 396.613426 53.662342 398.43447 53.522261 400.10806 53.522261 C 401.626825 53.522261 402.828567 53.706578 403.720657 54.07521 C 404.612747 54.421724 405.055106 55.225343 405.055106 56.486065 C 405.055106 57.636198 404.826554 58.520915 404.36945 59.154963 C 403.934464 59.75952 403.403633 60.423058 402.776958 61.138205 C 402.165029 61.853351 401.634198 62.996112 401.177094 64.559112 C 400.749481 66.099995 400.528301 68.422379 400.528301 71.51889 L 400.528301 103.81108 C 400.528301 106.914964 400.749481 109.274211 401.177094 110.874075 C 401.634198 112.459194 402.165029 113.631444 402.776958 114.390827 C 403.403633 115.150209 403.934464 115.784257 404.36945 116.278224 C 404.826554 116.757446 405.055106 117.487338 405.055106 118.460527 C 405.055106 119.809722 404.546393 120.694439 403.521595 121.129425 C 402.50417 121.586529 401.236075 121.815081 399.71731 121.815081 C 398.110073 121.815081 396.392247 121.675001 394.571203 121.387468 C 392.75016 121.129425 391.179786 120.996718 389.85271 120.996718 C 388.525633 120.996718 386.95526 121.129425 385.134216 121.387468 C 383.313173 121.675001 381.595346 121.815081 379.988109 121.815081 C 378.469344 121.815081 377.201249 121.586529 376.183824 121.129425 C 375.159026 120.694439 374.650314 119.809722 374.650314 118.460527 C 374.650314 117.487338 374.871493 116.757446 375.299107 116.278224 C 375.756211 115.784257 376.287041 115.150209 376.898971 114.390827 C 377.525646 113.631444 378.056476 112.459194 378.491462 110.874075 C 378.948566 109.274211 379.177118 106.914964 379.177118 103.81108 C 379.177118 102.203843 379.177118 100.073148 379.177118 97.396878 C 379.177118 94.72798 379.155 91.867393 379.110765 88.807745 C 379.066529 85.748097 379.044411 82.710567 379.044411 79.695155 C 379.044411 76.657625 379.044411 74.02559 379.044411 71.813796 C 379.044411 71.622107 378.911703 71.437791 378.65366 71.260848 C 378.395618 71.091277 378.167066 71.216612 377.968004 71.651598 C 377.363447 73.627467 376.449239 76.370091 375.240125 79.886844 C 374.045757 83.381478 372.733426 87.244744 371.29576 91.476643 C 369.887584 95.686424 368.420428 99.969931 366.901663 104.334538 C 365.405016 108.699144 364.041076 112.702491 362.802472 116.344578 C 362.175797 118.298329 361.541749 119.699132 360.915074 120.546986 C 360.288399 121.387468 359.352073 121.815081 358.113469 121.815081 C 357.228751 121.815081 356.447251 121.328487 355.768967 120.347925 C 355.120174 119.352618 354.478754 118.018169 353.852079 116.344578 C 352.525003 112.702491 351.146318 108.713889 349.716025 104.400892 C 348.307849 100.080521 346.884929 95.797014 345.454635 91.542997 C 344.01697 87.266862 342.748874 83.381478 341.642977 79.886844 C 340.537081 76.370091 339.622872 73.627467 338.907726 71.651598 C 338.826627 71.216612 338.627565 71.091277 338.325287 71.260848 C 338.023008 71.437791 337.868183 71.622107 337.868183 71.813796 L 337.868183 103.81108 C 337.868183 106.914964 338.081989 109.311074 338.516976 111.006782 C 338.97408 112.702491 339.50491 113.970586 340.11684 114.81844 C 340.743515 115.636804 341.274345 116.344578 341.709331 116.93439 C 342.166435 117.516829 342.394987 118.298329 342.394987 119.271519 C 342.394987 120.25208 342.122199 120.915619 341.576624 121.262133 C 341.060538 121.630765 340.397 121.815081 339.593382 121.815081 C 338.620193 121.815081 337.521668 121.675001 336.305182 121.387468 C 335.110813 121.129425 334.07127 120.996718 333.17918 120.996718 C 332.294462 120.996718 331.3139 121.129425 330.252239 121.387468 C 329.190578 121.675001 328.165781 121.815081 327.192591 121.815081 C 326.477445 121.815081 325.843397 121.630765 325.305194 121.262133 C 324.781736 120.915619 324.523693 120.25208 324.523693 119.271519 C 324.523693 118.298329 324.7375 117.516829 325.172486 116.93439 C 325.62959 116.344578 326.160421 115.636804 326.764978 114.81844 C 327.399025 113.970586 327.929856 112.702491 328.364842 111.006782 C 328.821946 109.311074 329.043125 106.914964 329.043125 103.81108 L 329.043125 71.51889 C 329.043125 68.422379 328.821946 66.099995 328.364842 64.559112 C 327.929856 62.996112 327.399025 61.853351 326.764978 61.138205 C 326.160421 60.423058 325.62959 59.75952 325.172486 59.154963 C 324.7375 58.520915 324.523693 57.636198 324.523693 56.486065 Z M 438.512173 121.815081 C 433.801053 121.815081 429.178404 120.878755 424.644226 119.013476 C 420.110049 117.148196 416.37949 114.221256 413.445177 110.225282 C 410.518237 106.20719 409.05108 100.957866 409.05108 94.469937 C 409.05108 88.955198 410.245449 84.14086 412.634186 80.019551 C 415.045041 75.876124 418.377477 72.646905 422.624121 70.34664 C 426.900256 68.031629 431.839929 66.866751 437.435767 66.866751 C 442.950506 66.866751 447.440448 67.537661 450.912964 68.886856 C 454.38548 70.206559 457.076496 71.909641 458.986011 73.996099 C 460.895527 76.082558 462.200485 78.213253 462.893514 80.410301 C 463.608661 82.577859 463.96992 84.465257 463.96992 86.072494 C 463.96992 90.518199 462.591235 94.145541 459.833866 96.947146 C 457.098614 99.741379 453.596607 101.783602 449.320473 103.066443 C 445.044338 104.34191 440.694477 104.983331 436.263516 104.983331 C 435.010167 104.983331 434.088586 105.433062 433.498774 106.31778 C 432.938453 107.20987 432.76151 108.24204 432.975316 109.414291 C 433.196496 110.564424 433.90427 111.581849 435.091266 112.473939 C 436.307752 113.358656 438.025579 113.808388 440.237373 113.808388 C 443.451846 113.808388 445.988037 113.233321 447.853316 112.083189 C 449.718595 110.910938 451.20787 109.576489 452.313767 108.079842 C 453.419664 106.561077 454.481325 105.226628 455.506123 104.076495 C 456.523548 102.926362 457.880115 102.351296 459.575823 102.351296 C 461.094588 102.351296 462.229976 102.815773 462.989358 103.744726 C 463.748741 104.681052 464.132118 105.720595 464.132118 106.870728 C 464.132118 109.88614 462.945122 112.518175 460.585876 114.752087 C 458.219256 116.96388 455.078509 118.696452 451.178379 119.957175 C 447.270877 121.195779 443.046351 121.815081 438.512173 121.815081 Z M 437.435767 73.671703 C 435.570488 73.671703 434.088586 74.784972 432.975316 77.026257 C 431.869419 79.238051 431.316471 82.209227 431.316471 85.939786 C 431.316471 89.677717 431.869419 92.656266 432.975316 94.897551 C 434.088586 97.109345 435.570488 98.215242 437.435767 98.215242 C 439.301047 98.215242 440.790321 97.109345 441.896218 94.897551 C 443.024233 92.656266 443.591927 89.677717 443.591927 85.939786 C 443.591927 82.209227 443.024233 79.238051 441.896218 77.026257 C 440.790321 74.784972 439.301047 73.671703 437.435767 73.671703 Z M 437.435767 73.671703 " stroke="#000000" stroke-width="4.999988" stroke-opacity="1" stroke-miterlimit="4"/></svg>