<svg xmlns="http://www.w3.org/2000/svg" xmlns:xlink="http://www.w3.org/1999/xlink" width="500" zoomAndPan="magnify" viewBox="0 0 375 374.999991" height="500" preserveAspectRatio="xMidYMid meet" version="1.0"><defs><g/><clipPath id="76e2f552cb"><path d="M 186 272 L 227 272 L 227 348.230469 L 186 348.230469 Z M 186 272 " clip-rule="nonzero"/></clipPath><clipPath id="1c5a9dc812"><path d="M 311 215 L 373.59375 215 L 373.59375 288 L 311 288 Z M 311 215 " clip-rule="nonzero"/></clipPath><clipPath id="b69cc54b70"><path d="M 8 194.480469 L 368 194.480469 L 368 279 L 8 279 Z M 8 194.480469 " clip-rule="nonzero"/></clipPath></defs><g fill="#f2c6de" fill-opacity="1"><g transform="translate(12.059244, 181.979556)"><g><path d="M 0.90625 -48.09375 C 0.90625 -49.09375 1.285156 -49.757812 2.046875 -50.09375 C 2.816406 -50.425781 3.769531 -50.59375 4.90625 -50.59375 C 6.101562 -50.59375 7.382812 -50.492188 8.75 -50.296875 C 10.113281 -50.097656 11.296875 -50 12.296875 -50 C 13.296875 -50 14.476562 -50.097656 15.84375 -50.296875 C 17.21875 -50.492188 18.535156 -50.59375 19.796875 -50.59375 C 20.929688 -50.59375 21.878906 -50.425781 22.640625 -50.09375 C 23.410156 -49.757812 23.796875 -49.09375 23.796875 -48.09375 C 23.796875 -47.363281 23.628906 -46.816406 23.296875 -46.453125 C 22.960938 -46.085938 22.5625 -45.617188 22.09375 -45.046875 C 21.632812 -44.484375 21.238281 -43.597656 20.90625 -42.390625 C 20.570312 -41.191406 20.40625 -39.425781 20.40625 -37.09375 L 20.40625 -7 C 20.40625 -6.132812 20.671875 -5.550781 21.203125 -5.25 C 21.734375 -4.945312 22.332031 -4.796875 23 -4.796875 C 23.664062 -4.796875 24.234375 -4.796875 24.703125 -4.796875 C 26.171875 -4.796875 27.519531 -5.328125 28.75 -6.390625 C 29.976562 -7.460938 31.109375 -8.78125 32.140625 -10.34375 C 33.179688 -11.914062 34.148438 -13.484375 35.046875 -15.046875 C 35.953125 -16.617188 36.851562 -17.9375 37.75 -19 C 38.644531 -20.0625 39.5625 -20.59375 40.5 -20.59375 C 42.101562 -20.59375 42.820312 -19.707031 42.65625 -17.9375 C 42.488281 -16.175781 41.769531 -13.03125 40.5 -8.5 C 40.03125 -6.695312 39.757812 -5.113281 39.6875 -3.75 C 39.625 -2.382812 39.394531 -1.316406 39 -0.546875 C 38.601562 0.210938 37.671875 0.59375 36.203125 0.59375 C 31.203125 0.59375 26.75 0.492188 22.84375 0.296875 C 18.945312 0.0976562 15.398438 0 12.203125 0 C 10.597656 0 9.09375 0.0976562 7.6875 0.296875 C 6.289062 0.492188 5.0625 0.59375 4 0.59375 C 3.0625 0.59375 2.3125 0.425781 1.75 0.09375 C 1.1875 -0.238281 0.90625 -0.90625 0.90625 -1.90625 C 0.90625 -2.632812 1.070312 -3.179688 1.40625 -3.546875 C 1.738281 -3.910156 2.132812 -4.375 2.59375 -4.9375 C 3.0625 -5.507812 3.460938 -6.394531 3.796875 -7.59375 C 4.128906 -8.800781 4.296875 -10.570312 4.296875 -12.90625 L 4.296875 -37.09375 C 4.296875 -39.425781 4.128906 -41.191406 3.796875 -42.390625 C 3.460938 -43.597656 3.0625 -44.484375 2.59375 -45.046875 C 2.132812 -45.617188 1.738281 -46.085938 1.40625 -46.453125 C 1.070312 -46.816406 0.90625 -47.363281 0.90625 -48.09375 Z M 0.90625 -48.09375 "/></g></g></g><g fill="#dbcdf0" fill-opacity="1"><g transform="translate(55.067054, 181.979556)"><g><path d="M 24.09375 0.59375 C 20.5625 0.59375 17.09375 -0.101562 13.6875 -1.5 C 10.289062 -2.894531 7.492188 -5.09375 5.296875 -8.09375 C 3.097656 -11.09375 2 -15.03125 2 -19.90625 C 2 -24.03125 2.898438 -27.644531 4.703125 -30.75 C 6.503906 -33.851562 9.003906 -36.269531 12.203125 -38 C 15.398438 -39.726562 19.097656 -40.59375 23.296875 -40.59375 C 27.429688 -40.59375 30.796875 -40.09375 33.390625 -39.09375 C 35.992188 -38.09375 38.007812 -36.8125 39.4375 -35.25 C 40.875 -33.6875 41.859375 -32.085938 42.390625 -30.453125 C 42.929688 -28.816406 43.203125 -27.398438 43.203125 -26.203125 C 43.203125 -22.867188 42.164062 -20.148438 40.09375 -18.046875 C 38.03125 -15.953125 35.398438 -14.421875 32.203125 -13.453125 C 29.003906 -12.484375 25.738281 -12 22.40625 -12 C 21.46875 -12 20.78125 -11.664062 20.34375 -11 C 19.914062 -10.332031 19.785156 -9.566406 19.953125 -8.703125 C 20.117188 -7.835938 20.648438 -7.070312 21.546875 -6.40625 C 22.453125 -5.738281 23.738281 -5.40625 25.40625 -5.40625 C 27.800781 -5.40625 29.695312 -5.835938 31.09375 -6.703125 C 32.5 -7.566406 33.617188 -8.566406 34.453125 -9.703125 C 35.285156 -10.835938 36.082031 -11.835938 36.84375 -12.703125 C 37.613281 -13.566406 38.632812 -14 39.90625 -14 C 41.03125 -14 41.875 -13.648438 42.4375 -12.953125 C 43.007812 -12.253906 43.296875 -11.46875 43.296875 -10.59375 C 43.296875 -8.332031 42.410156 -6.367188 40.640625 -4.703125 C 38.878906 -3.035156 36.53125 -1.734375 33.59375 -0.796875 C 30.664062 0.128906 27.5 0.59375 24.09375 0.59375 Z M 23.296875 -35.5 C 21.898438 -35.5 20.785156 -34.664062 19.953125 -33 C 19.117188 -31.332031 18.703125 -29.097656 18.703125 -26.296875 C 18.703125 -23.492188 19.117188 -21.257812 19.953125 -19.59375 C 20.785156 -17.925781 21.898438 -17.09375 23.296875 -17.09375 C 24.703125 -17.09375 25.820312 -17.925781 26.65625 -19.59375 C 27.488281 -21.257812 27.90625 -23.492188 27.90625 -26.296875 C 27.90625 -29.097656 27.488281 -31.332031 26.65625 -33 C 25.820312 -34.664062 24.703125 -35.5 23.296875 -35.5 Z M 23.296875 -35.5 "/></g></g></g><g fill="#c6def1" fill-opacity="1"><g transform="translate(100.371738, 181.979556)"><g><path d="M 13 0.59375 C 9.269531 0.59375 6.503906 -0.503906 4.703125 -2.703125 C 2.898438 -4.898438 2 -7.53125 2 -10.59375 C 2 -15.0625 3.664062 -18.578125 7 -21.140625 C 10.332031 -23.710938 14.664062 -25.566406 20 -26.703125 C 25.0625 -27.765625 27.59375 -29.429688 27.59375 -31.703125 C 27.59375 -32.566406 27.226562 -33.414062 26.5 -34.25 C 25.769531 -35.082031 24.503906 -35.5 22.703125 -35.5 C 20.898438 -35.5 19.429688 -35.015625 18.296875 -34.046875 C 17.160156 -33.078125 16.160156 -31.976562 15.296875 -30.75 C 14.429688 -29.519531 13.484375 -28.421875 12.453125 -27.453125 C 11.421875 -26.484375 10.035156 -26 8.296875 -26 C 7.160156 -26 6.175781 -26.398438 5.34375 -27.203125 C 4.507812 -28.003906 4.09375 -28.96875 4.09375 -30.09375 C 4.09375 -32.363281 4.992188 -34.28125 6.796875 -35.84375 C 8.597656 -37.414062 10.945312 -38.597656 13.84375 -39.390625 C 16.75 -40.191406 19.898438 -40.59375 23.296875 -40.59375 C 26.960938 -40.59375 30.296875 -40.007812 33.296875 -38.84375 C 36.296875 -37.675781 38.695312 -35.726562 40.5 -33 C 42.300781 -30.269531 43.203125 -26.535156 43.203125 -21.796875 L 43.203125 -12.90625 C 43.203125 -10.570312 43.367188 -8.800781 43.703125 -7.59375 C 44.035156 -6.394531 44.429688 -5.507812 44.890625 -4.9375 C 45.359375 -4.375 45.757812 -3.910156 46.09375 -3.546875 C 46.425781 -3.179688 46.59375 -2.632812 46.59375 -1.90625 C 46.59375 -0.90625 46.289062 -0.238281 45.6875 0.09375 C 45.09375 0.425781 44.332031 0.59375 43.40625 0.59375 C 42.40625 0.59375 41.300781 0.492188 40.09375 0.296875 C 38.894531 0.0976562 37.796875 0 36.796875 0 C 35.734375 0 34.800781 0.046875 34 0.140625 C 33.195312 0.242188 32.363281 0.363281 31.5 0.5 C 30.4375 0.632812 29.488281 0.5 28.65625 0.09375 C 27.820312 -0.300781 27.335938 -1.03125 27.203125 -2.09375 C 27.128906 -3.164062 26.957031 -3.882812 26.6875 -4.25 C 26.425781 -4.613281 26.097656 -4.796875 25.703125 -4.796875 C 24.960938 -4.796875 24.007812 -4.34375 22.84375 -3.4375 C 21.675781 -2.539062 20.273438 -1.644531 18.640625 -0.75 C 17.015625 0.144531 15.132812 0.59375 13 0.59375 Z M 17.5 -14.703125 C 17.5 -12.765625 17.984375 -11.378906 18.953125 -10.546875 C 19.921875 -9.710938 21.070312 -9.296875 22.40625 -9.296875 C 24.070312 -9.296875 25.335938 -10.007812 26.203125 -11.4375 C 27.066406 -12.875 27.5 -14.5625 27.5 -16.5 L 27.5 -21.296875 C 27.5 -23.097656 26.664062 -23.566406 25 -22.703125 C 23.9375 -22.171875 22.820312 -21.585938 21.65625 -20.953125 C 20.488281 -20.316406 19.503906 -19.53125 18.703125 -18.59375 C 17.898438 -17.664062 17.5 -16.367188 17.5 -14.703125 Z M 17.5 -14.703125 "/></g></g></g><g fill="#c9e4de" fill-opacity="1"><g transform="translate(147.973297, 181.979556)"><g><path d="M 1 -1.90625 C 1 -2.632812 1.164062 -3.179688 1.5 -3.546875 C 1.832031 -3.910156 2.234375 -4.375 2.703125 -4.9375 C 3.171875 -5.507812 3.570312 -6.394531 3.90625 -7.59375 C 4.238281 -8.800781 4.40625 -10.570312 4.40625 -12.90625 C 4.40625 -15.96875 4.421875 -18.179688 4.453125 -19.546875 C 4.484375 -20.910156 4.5 -21.910156 4.5 -22.546875 C 4.5 -23.179688 4.5 -23.898438 4.5 -24.703125 C 4.5 -26.503906 4.210938 -27.753906 3.640625 -28.453125 C 3.078125 -29.148438 2.507812 -29.695312 1.9375 -30.09375 C 1.375 -30.5 1.09375 -31.132812 1.09375 -32 C 1.09375 -33 1.425781 -33.679688 2.09375 -34.046875 C 2.757812 -34.410156 3.707031 -34.726562 4.9375 -35 C 6.175781 -35.269531 7.664062 -35.703125 9.40625 -36.296875 C 11.53125 -37.097656 12.992188 -37.816406 13.796875 -38.453125 C 14.597656 -39.085938 15.195312 -39.601562 15.59375 -40 C 16 -40.394531 16.632812 -40.59375 17.5 -40.59375 C 18.695312 -40.59375 19.492188 -40.0625 19.890625 -39 C 20.296875 -37.9375 20.5 -36.671875 20.5 -35.203125 L 20.5 -34.796875 C 20.5 -33.128906 20.53125 -32.3125 20.59375 -32.34375 C 20.664062 -32.382812 21.132812 -33.132812 22 -34.59375 C 23.132812 -36.53125 24.71875 -38.015625 26.75 -39.046875 C 28.78125 -40.078125 30.726562 -40.59375 32.59375 -40.59375 C 36.257812 -40.59375 38.625 -39.8125 39.6875 -38.25 C 40.757812 -36.6875 40.796875 -34.40625 39.796875 -31.40625 C 38.992188 -29 38.273438 -27.34375 37.640625 -26.4375 C 37.015625 -25.539062 36.398438 -25.09375 35.796875 -25.09375 C 35.128906 -25.09375 34.394531 -25.492188 33.59375 -26.296875 C 32.800781 -27.097656 31.921875 -27.878906 30.953125 -28.640625 C 29.984375 -29.410156 28.800781 -29.796875 27.40625 -29.796875 C 26.601562 -29.796875 25.648438 -29.53125 24.546875 -29 C 23.453125 -28.46875 22.503906 -27.5 21.703125 -26.09375 C 20.898438 -24.695312 20.5 -22.734375 20.5 -20.203125 L 20.5 -12.90625 C 20.5 -10.570312 20.664062 -8.800781 21 -7.59375 C 21.332031 -6.394531 21.734375 -5.507812 22.203125 -4.9375 C 22.671875 -4.375 23.070312 -3.910156 23.40625 -3.546875 C 23.738281 -3.179688 23.90625 -2.632812 23.90625 -1.90625 C 23.90625 -0.90625 23.519531 -0.238281 22.75 0.09375 C 21.976562 0.425781 21.03125 0.59375 19.90625 0.59375 C 18.632812 0.59375 17.316406 0.492188 15.953125 0.296875 C 14.585938 0.0976562 13.40625 0 12.40625 0 C 11.40625 0 10.21875 0.0976562 8.84375 0.296875 C 7.476562 0.492188 6.195312 0.59375 5 0.59375 C 3.863281 0.59375 2.910156 0.425781 2.140625 0.09375 C 1.378906 -0.238281 1 -0.90625 1 -1.90625 Z M 1 -1.90625 "/></g></g></g><g fill="#faedcb" fill-opacity="1"><g transform="translate(189.973295, 181.979556)"><g><path d="M 1 -1.90625 C 1 -2.632812 1.164062 -3.179688 1.5 -3.546875 C 1.832031 -3.910156 2.234375 -4.375 2.703125 -4.9375 C 3.171875 -5.507812 3.570312 -6.394531 3.90625 -7.59375 C 4.238281 -8.800781 4.40625 -10.570312 4.40625 -12.90625 C 4.40625 -15.96875 4.421875 -18.179688 4.453125 -19.546875 C 4.484375 -20.910156 4.5 -21.910156 4.5 -22.546875 C 4.5 -23.179688 4.5 -23.898438 4.5 -24.703125 C 4.5 -26.503906 4.210938 -27.753906 3.640625 -28.453125 C 3.078125 -29.148438 2.507812 -29.695312 1.9375 -30.09375 C 1.375 -30.5 1.09375 -31.132812 1.09375 -32 C 1.09375 -33 1.425781 -33.679688 2.09375 -34.046875 C 2.757812 -34.410156 3.707031 -34.726562 4.9375 -35 C 6.175781 -35.269531 7.664062 -35.703125 9.40625 -36.296875 C 11.53125 -37.097656 12.992188 -37.816406 13.796875 -38.453125 C 14.597656 -39.085938 15.195312 -39.601562 15.59375 -40 C 16 -40.394531 16.632812 -40.59375 17.5 -40.59375 C 18.695312 -40.59375 19.492188 -40.0625 19.890625 -39 C 20.296875 -37.9375 20.5 -36.671875 20.5 -35.203125 L 20.5 -34.40625 C 20.5 -33.46875 20.664062 -33 21 -33 C 21.332031 -33 21.863281 -33.378906 22.59375 -34.140625 C 23.332031 -34.910156 24.285156 -35.796875 25.453125 -36.796875 C 26.617188 -37.796875 28.015625 -38.675781 29.640625 -39.4375 C 31.273438 -40.207031 33.128906 -40.59375 35.203125 -40.59375 C 38.335938 -40.59375 40.703125 -39.925781 42.296875 -38.59375 C 43.898438 -37.257812 44.984375 -35.59375 45.546875 -33.59375 C 46.117188 -31.59375 46.40625 -29.5625 46.40625 -27.5 L 46.40625 -12.90625 C 46.40625 -10.570312 46.570312 -8.800781 46.90625 -7.59375 C 47.238281 -6.394531 47.632812 -5.507812 48.09375 -4.9375 C 48.5625 -4.375 48.960938 -3.910156 49.296875 -3.546875 C 49.628906 -3.179688 49.796875 -2.632812 49.796875 -1.90625 C 49.796875 -0.90625 49.507812 -0.238281 48.9375 0.09375 C 48.375 0.425781 47.628906 0.59375 46.703125 0.59375 C 45.765625 0.59375 44.675781 0.492188 43.4375 0.296875 C 42.207031 0.0976562 41.03125 0 39.90625 0 C 38.832031 0 37.910156 0.046875 37.140625 0.140625 C 36.378906 0.242188 35.566406 0.363281 34.703125 0.5 C 33.367188 0.632812 32.285156 0.335938 31.453125 -0.390625 C 30.617188 -1.128906 30.203125 -2.164062 30.203125 -3.5 L 30.203125 -19.90625 C 30.203125 -23.101562 29.867188 -25.535156 29.203125 -27.203125 C 28.535156 -28.867188 27.332031 -29.703125 25.59375 -29.703125 C 24.0625 -29.703125 22.828125 -28.914062 21.890625 -27.34375 C 20.960938 -25.78125 20.5 -22.566406 20.5 -17.703125 L 20.5 -12.90625 C 20.5 -10.570312 20.664062 -8.800781 21 -7.59375 C 21.332031 -6.394531 21.734375 -5.507812 22.203125 -4.9375 C 22.671875 -4.375 23.070312 -3.910156 23.40625 -3.546875 C 23.738281 -3.179688 23.90625 -2.632812 23.90625 -1.90625 C 23.90625 -0.90625 23.519531 -0.238281 22.75 0.09375 C 21.976562 0.425781 21.03125 0.59375 19.90625 0.59375 C 18.632812 0.59375 17.316406 0.492188 15.953125 0.296875 C 14.585938 0.0976562 13.40625 0 12.40625 0 C 11.40625 0 10.21875 0.0976562 8.84375 0.296875 C 7.476562 0.492188 6.195312 0.59375 5 0.59375 C 3.863281 0.59375 2.910156 0.425781 2.140625 0.09375 C 1.378906 -0.238281 1 -0.90625 1 -1.90625 Z M 1 -1.90625 "/></g></g></g><g fill="#f7d9c4" fill-opacity="1"><g transform="translate(240.774076, 181.979556)"><g><path d="M 12.703125 0 C 11.703125 0 10.515625 0.0976562 9.140625 0.296875 C 7.773438 0.492188 6.492188 0.59375 5.296875 0.59375 C 4.160156 0.59375 3.207031 0.425781 2.4375 0.09375 C 1.675781 -0.238281 1.296875 -0.90625 1.296875 -1.90625 C 1.296875 -2.632812 1.460938 -3.179688 1.796875 -3.546875 C 2.128906 -3.910156 2.53125 -4.375 3 -4.9375 C 3.46875 -5.507812 3.867188 -6.394531 4.203125 -7.59375 C 4.535156 -8.800781 4.703125 -10.570312 4.703125 -12.90625 C 4.703125 -15.96875 4.71875 -18.179688 4.75 -19.546875 C 4.78125 -20.910156 4.796875 -21.910156 4.796875 -22.546875 C 4.796875 -23.179688 4.796875 -23.898438 4.796875 -24.703125 C 4.796875 -26.503906 4.507812 -27.753906 3.9375 -28.453125 C 3.375 -29.148438 2.8125 -29.695312 2.25 -30.09375 C 1.6875 -30.5 1.40625 -31.132812 1.40625 -32 C 1.40625 -33 1.738281 -33.679688 2.40625 -34.046875 C 3.070312 -34.410156 4.019531 -34.726562 5.25 -35 C 6.476562 -35.269531 7.960938 -35.703125 9.703125 -36.296875 C 11.835938 -37.097656 13.300781 -37.816406 14.09375 -38.453125 C 14.894531 -39.085938 15.492188 -39.601562 15.890625 -40 C 16.296875 -40.394531 16.929688 -40.59375 17.796875 -40.59375 C 18.992188 -40.59375 19.789062 -40.0625 20.1875 -39 C 20.59375 -37.9375 20.796875 -36.671875 20.796875 -35.203125 L 20.796875 -12.90625 C 20.796875 -10.570312 20.960938 -8.800781 21.296875 -7.59375 C 21.628906 -6.394531 22.03125 -5.507812 22.5 -4.9375 C 22.96875 -4.375 23.367188 -3.910156 23.703125 -3.546875 C 24.035156 -3.179688 24.203125 -2.632812 24.203125 -1.90625 C 24.203125 -0.90625 23.816406 -0.238281 23.046875 0.09375 C 22.285156 0.425781 21.335938 0.59375 20.203125 0.59375 C 18.929688 0.59375 17.613281 0.492188 16.25 0.296875 C 14.882812 0.0976562 13.703125 0 12.703125 0 Z M 1.296875 -43.40625 C 0.628906 -45.40625 0.976562 -47.570312 2.34375 -49.90625 C 3.71875 -52.238281 5.800781 -54.132812 8.59375 -55.59375 C 10.925781 -56.800781 13.0625 -57.40625 15 -57.40625 C 17.9375 -57.40625 19.835938 -56.203125 20.703125 -53.796875 C 21.429688 -51.734375 21.113281 -49.566406 19.75 -47.296875 C 18.382812 -45.035156 16.300781 -43.132812 13.5 -41.59375 C 11.101562 -40.394531 8.9375 -39.796875 7 -39.796875 C 4.132812 -39.796875 2.234375 -41 1.296875 -43.40625 Z M 1.296875 -43.40625 "/></g></g></g><g fill="#f2c6de" fill-opacity="1"><g transform="translate(265.875637, 181.979556)"><g><path d="M 1 -1.90625 C 1 -2.632812 1.164062 -3.179688 1.5 -3.546875 C 1.832031 -3.910156 2.234375 -4.375 2.703125 -4.9375 C 3.171875 -5.507812 3.570312 -6.394531 3.90625 -7.59375 C 4.238281 -8.800781 4.40625 -10.570312 4.40625 -12.90625 C 4.40625 -15.96875 4.421875 -18.179688 4.453125 -19.546875 C 4.484375 -20.910156 4.5 -21.910156 4.5 -22.546875 C 4.5 -23.179688 4.5 -23.898438 4.5 -24.703125 C 4.5 -26.503906 4.210938 -27.753906 3.640625 -28.453125 C 3.078125 -29.148438 2.507812 -29.695312 1.9375 -30.09375 C 1.375 -30.5 1.09375 -31.132812 1.09375 -32 C 1.09375 -33 1.425781 -33.679688 2.09375 -34.046875 C 2.757812 -34.410156 3.707031 -34.726562 4.9375 -35 C 6.175781 -35.269531 7.664062 -35.703125 9.40625 -36.296875 C 11.53125 -37.097656 12.992188 -37.816406 13.796875 -38.453125 C 14.597656 -39.085938 15.195312 -39.601562 15.59375 -40 C 16 -40.394531 16.632812 -40.59375 17.5 -40.59375 C 18.695312 -40.59375 19.492188 -40.0625 19.890625 -39 C 20.296875 -37.9375 20.5 -36.671875 20.5 -35.203125 L 20.5 -34.40625 C 20.5 -33.46875 20.664062 -33 21 -33 C 21.332031 -33 21.863281 -33.378906 22.59375 -34.140625 C 23.332031 -34.910156 24.285156 -35.796875 25.453125 -36.796875 C 26.617188 -37.796875 28.015625 -38.675781 29.640625 -39.4375 C 31.273438 -40.207031 33.128906 -40.59375 35.203125 -40.59375 C 38.335938 -40.59375 40.703125 -39.925781 42.296875 -38.59375 C 43.898438 -37.257812 44.984375 -35.59375 45.546875 -33.59375 C 46.117188 -31.59375 46.40625 -29.5625 46.40625 -27.5 L 46.40625 -12.90625 C 46.40625 -10.570312 46.570312 -8.800781 46.90625 -7.59375 C 47.238281 -6.394531 47.632812 -5.507812 48.09375 -4.9375 C 48.5625 -4.375 48.960938 -3.910156 49.296875 -3.546875 C 49.628906 -3.179688 49.796875 -2.632812 49.796875 -1.90625 C 49.796875 -0.90625 49.507812 -0.238281 48.9375 0.09375 C 48.375 0.425781 47.628906 0.59375 46.703125 0.59375 C 45.765625 0.59375 44.675781 0.492188 43.4375 0.296875 C 42.207031 0.0976562 41.03125 0 39.90625 0 C 38.832031 0 37.910156 0.046875 37.140625 0.140625 C 36.378906 0.242188 35.566406 0.363281 34.703125 0.5 C 33.367188 0.632812 32.285156 0.335938 31.453125 -0.390625 C 30.617188 -1.128906 30.203125 -2.164062 30.203125 -3.5 L 30.203125 -19.90625 C 30.203125 -23.101562 29.867188 -25.535156 29.203125 -27.203125 C 28.535156 -28.867188 27.332031 -29.703125 25.59375 -29.703125 C 24.0625 -29.703125 22.828125 -28.914062 21.890625 -27.34375 C 20.960938 -25.78125 20.5 -22.566406 20.5 -17.703125 L 20.5 -12.90625 C 20.5 -10.570312 20.664062 -8.800781 21 -7.59375 C 21.332031 -6.394531 21.734375 -5.507812 22.203125 -4.9375 C 22.671875 -4.375 23.070312 -3.910156 23.40625 -3.546875 C 23.738281 -3.179688 23.90625 -2.632812 23.90625 -1.90625 C 23.90625 -0.90625 23.519531 -0.238281 22.75 0.09375 C 21.976562 0.425781 21.03125 0.59375 19.90625 0.59375 C 18.632812 0.59375 17.316406 0.492188 15.953125 0.296875 C 14.585938 0.0976562 13.40625 0 12.40625 0 C 11.40625 0 10.21875 0.0976562 8.84375 0.296875 C 7.476562 0.492188 6.195312 0.59375 5 0.59375 C 3.863281 0.59375 2.910156 0.425781 2.140625 0.09375 C 1.378906 -0.238281 1 -0.90625 1 -1.90625 Z M 1 -1.90625 "/></g></g></g><g fill="#dbcdf0" fill-opacity="1"><g transform="translate(315.574849, 181.979556)"><g><path d="M 21.90625 11.703125 C 18.5 11.703125 15.242188 11.414062 12.140625 10.84375 C 9.046875 10.28125 6.5 9.28125 4.5 7.84375 C 2.5 6.414062 1.5 4.398438 1.5 1.796875 C 1.5 0.597656 1.945312 -0.613281 2.84375 -1.84375 C 3.75 -3.082031 5.300781 -3.703125 7.5 -3.703125 C 9.300781 -3.703125 10.679688 -3.179688 11.640625 -2.140625 C 12.609375 -1.109375 13.476562 0.0703125 14.25 1.40625 C 15.019531 2.738281 15.96875 3.921875 17.09375 4.953125 C 18.226562 5.984375 19.832031 6.5 21.90625 6.5 C 24.363281 6.5 26.007812 6.113281 26.84375 5.34375 C 27.675781 4.582031 28.09375 3.664062 28.09375 2.59375 C 28.09375 1.59375 27.59375 0.828125 26.59375 0.296875 C 25.59375 -0.234375 24.375 -0.648438 22.9375 -0.953125 C 21.507812 -1.253906 20.0625 -1.585938 18.59375 -1.953125 C 17.132812 -2.316406 15.90625 -2.816406 14.90625 -3.453125 C 13.90625 -4.085938 13.40625 -5.003906 13.40625 -6.203125 C 13.40625 -7.335938 13.9375 -8.238281 15 -8.90625 C 16.0625 -9.570312 16.925781 -9.90625 17.59375 -9.90625 L 16.5 -10.09375 C 12.363281 -10.832031 8.894531 -12.484375 6.09375 -15.046875 C 3.300781 -17.617188 1.90625 -20.867188 1.90625 -24.796875 C 1.90625 -29.328125 3.800781 -32.992188 7.59375 -35.796875 C 11.394531 -38.597656 16.394531 -40 22.59375 -40 C 24.53125 -40 26.515625 -39.960938 28.546875 -39.890625 C 30.578125 -39.828125 32.425781 -39.863281 34.09375 -40 C 35.695312 -40.132812 37.082031 -40.285156 38.25 -40.453125 C 39.414062 -40.617188 40.363281 -40.703125 41.09375 -40.703125 C 42.226562 -40.703125 43.007812 -40.5 43.4375 -40.09375 C 43.875 -39.695312 44.09375 -38.929688 44.09375 -37.796875 C 44.09375 -36.734375 43.859375 -36 43.390625 -35.59375 C 42.929688 -35.195312 42.234375 -35 41.296875 -35 C 40.628906 -35 39.828125 -35.082031 38.890625 -35.25 C 37.960938 -35.414062 36.863281 -35.632812 35.59375 -35.90625 C 38.195312 -35.164062 40.128906 -33.695312 41.390625 -31.5 C 42.660156 -29.300781 43.296875 -27.066406 43.296875 -24.796875 C 43.296875 -20.203125 41.710938 -16.503906 38.546875 -13.703125 C 35.378906 -10.898438 31.164062 -9.5 25.90625 -9.5 C 24.03125 -9.5 22.691406 -9.28125 21.890625 -8.84375 C 21.097656 -8.414062 20.664062 -7.898438 20.59375 -7.296875 C 20.53125 -6.296875 21.363281 -5.832031 23.09375 -5.90625 C 24.632812 -5.96875 26.238281 -6.332031 27.90625 -7 C 29.570312 -7.664062 31.90625 -8 34.90625 -8 C 37.90625 -8 40.203125 -7.296875 41.796875 -5.890625 C 43.398438 -4.492188 44.203125 -2.53125 44.203125 0 C 44.203125 3.332031 42.46875 6.113281 39 8.34375 C 35.53125 10.582031 29.832031 11.703125 21.90625 11.703125 Z M 17.5 -24.59375 C 17.5 -21.394531 17.960938 -18.8125 18.890625 -16.84375 C 19.828125 -14.882812 21.0625 -13.90625 22.59375 -13.90625 C 24.132812 -13.90625 25.367188 -14.882812 26.296875 -16.84375 C 27.234375 -18.8125 27.703125 -21.394531 27.703125 -24.59375 C 27.703125 -27.726562 27.234375 -30.28125 26.296875 -32.25 C 25.367188 -34.21875 24.132812 -35.203125 22.59375 -35.203125 C 21.0625 -35.203125 19.828125 -34.21875 18.890625 -32.25 C 17.960938 -30.28125 17.5 -27.726562 17.5 -24.59375 Z M 17.5 -24.59375 "/></g></g></g><g fill="#000000" fill-opacity="1"><g transform="translate(59.705332, 110.179561)"><g><path d="M 36.09375 -11.09375 C 36.757812 -10.832031 36.960938 -10.398438 36.703125 -9.796875 C 36.035156 -8.128906 35.316406 -6.660156 34.546875 -5.390625 C 33.785156 -4.128906 33.003906 -3.03125 32.203125 -2.09375 C 31.265625 -1.164062 30.332031 -0.5 29.40625 -0.09375 C 28.53125 0.238281 27.757812 0.40625 27.09375 0.40625 C 26.695312 0.40625 26.363281 0.367188 26.09375 0.296875 C 24.832031 0.0976562 23.96875 -0.5 23.5 -1.5 C 22.226562 -3.5 22.460938 -7.097656 24.203125 -12.296875 C 25.128906 -15.097656 25.59375 -17.03125 25.59375 -18.09375 C 25.59375 -19.164062 25.492188 -19.832031 25.296875 -20.09375 C 25.296875 -20.363281 25.03125 -20.5 24.5 -20.5 C 24.363281 -20.5 24.03125 -20.363281 23.5 -20.09375 C 22.96875 -19.832031 22.164062 -19.148438 21.09375 -18.046875 C 20.03125 -16.953125 18.632812 -15.132812 16.90625 -12.59375 C 15.363281 -10.332031 13.976562 -8.066406 12.75 -5.796875 C 11.519531 -3.535156 10.632812 -1.738281 10.09375 -0.40625 L 10.09375 -0.296875 C 9.832031 0.367188 9.398438 0.566406 8.796875 0.296875 C 8.128906 0.0351562 7.929688 -0.394531 8.203125 -1 C 8.203125 -1.0625 8.234375 -1.09375 8.296875 -1.09375 C 8.429688 -1.425781 8.863281 -2.609375 9.59375 -4.640625 C 10.332031 -6.679688 11.203125 -9.234375 12.203125 -12.296875 C 13.128906 -15.234375 13.5625 -17.21875 13.5 -18.25 C 13.4375 -19.28125 13.335938 -19.929688 13.203125 -20.203125 C 13.003906 -20.398438 12.769531 -20.5 12.5 -20.5 C 12.363281 -20.5 12.03125 -20.363281 11.5 -20.09375 C 10.96875 -19.832031 10.164062 -19.148438 9.09375 -18.046875 C 8.03125 -16.953125 6.632812 -15.132812 4.90625 -12.59375 C 3.363281 -10.332031 1.976562 -8.050781 0.75 -5.75 C -0.476562 -3.445312 -1.363281 -1.628906 -1.90625 -0.296875 C -1.96875 -0.0351562 -2.164062 0.160156 -2.5 0.296875 C -2.632812 0.367188 -2.800781 0.40625 -3 0.40625 L -3.40625 0.40625 C -4 0.132812 -4.164062 -0.300781 -3.90625 -0.90625 L 1.703125 -15.703125 C 2.429688 -17.628906 2.828125 -19.226562 2.890625 -20.5 C 2.960938 -21.769531 3 -22.503906 3 -22.703125 C 2.9375 -22.960938 2.953125 -23.207031 3.046875 -23.4375 C 3.148438 -23.675781 3.332031 -23.832031 3.59375 -23.90625 C 4.257812 -24.101562 4.695312 -23.867188 4.90625 -23.203125 C 4.96875 -22.929688 5.015625 -22.53125 5.046875 -22 C 5.078125 -21.46875 5.03125 -20.867188 4.90625 -20.203125 C 4.832031 -19.671875 4.695312 -18.9375 4.5 -18 C 4.300781 -17.0625 4 -16.03125 3.59375 -14.90625 L 2.90625 -13.203125 C 3.101562 -13.398438 3.234375 -13.566406 3.296875 -13.703125 C 4.160156 -14.960938 4.976562 -16.09375 5.75 -17.09375 C 6.519531 -18.09375 7.238281 -18.960938 7.90625 -19.703125 C 9.695312 -21.566406 11.226562 -22.5 12.5 -22.5 C 13.101562 -22.5 13.585938 -22.378906 13.953125 -22.140625 C 14.316406 -21.910156 14.597656 -21.664062 14.796875 -21.40625 C 15.796875 -19.9375 15.628906 -16.898438 14.296875 -12.296875 C 14.566406 -12.703125 14.898438 -13.171875 15.296875 -13.703125 C 16.160156 -14.960938 16.976562 -16.09375 17.75 -17.09375 C 18.519531 -18.09375 19.238281 -18.960938 19.90625 -19.703125 C 21.695312 -21.566406 23.226562 -22.5 24.5 -22.5 C 25.226562 -22.5 25.773438 -22.363281 26.140625 -22.09375 C 26.515625 -21.832031 26.800781 -21.566406 27 -21.296875 C 28.0625 -19.828125 27.757812 -16.628906 26.09375 -11.703125 C 25.632812 -10.429688 25.21875 -8.84375 24.84375 -6.9375 C 24.476562 -5.039062 24.597656 -3.59375 25.203125 -2.59375 C 25.535156 -2.0625 25.96875 -1.765625 26.5 -1.703125 C 27.894531 -1.429688 29.296875 -2.03125 30.703125 -3.5 C 31.429688 -4.226562 32.144531 -5.207031 32.84375 -6.4375 C 33.550781 -7.675781 34.203125 -9.03125 34.796875 -10.5 C 35.066406 -11.164062 35.5 -11.363281 36.09375 -11.09375 Z M 36.09375 -11.09375 "/></g></g></g><g fill="#000000" fill-opacity="1"><g transform="translate(94.803982, 110.179561)"><g><path d="M 15.5 0.5 C 13.96875 0.5 12.800781 -0.0664062 12 -1.203125 C 10.53125 -3.265625 10.726562 -6.628906 12.59375 -11.296875 C 13.332031 -13.160156 13.96875 -14.859375 14.5 -16.390625 C 15.03125 -17.929688 15.128906 -18.9375 14.796875 -19.40625 C 14.734375 -19.53125 14.535156 -19.644531 14.203125 -19.75 C 13.867188 -19.851562 13.300781 -19.90625 12.5 -19.90625 C 11.632812 -19.90625 10.703125 -19.90625 9.703125 -19.90625 C 8.703125 -19.90625 7.769531 -19.867188 6.90625 -19.796875 L 5.59375 -19.796875 C 5.132812 -18.597656 4.601562 -17.234375 4 -15.703125 C 3.394531 -14.171875 2.859375 -12.835938 2.390625 -11.703125 C 1.929688 -10.566406 1.664062 -9.929688 1.59375 -9.796875 C 1.332031 -9.203125 0.898438 -9.035156 0.296875 -9.296875 C -0.367188 -9.566406 -0.566406 -10 -0.296875 -10.59375 C -0.234375 -10.59375 -0.00390625 -11.109375 0.390625 -12.140625 C 0.796875 -13.179688 1.296875 -14.414062 1.890625 -15.84375 C 2.492188 -17.28125 3.03125 -18.597656 3.5 -19.796875 C 2.769531 -19.929688 2.203125 -20.113281 1.796875 -20.34375 C 1.398438 -20.582031 1.101562 -20.832031 0.90625 -21.09375 C 0.695312 -21.363281 0.523438 -21.734375 0.390625 -22.203125 C 0.265625 -22.671875 0.332031 -23.238281 0.59375 -23.90625 C 1.332031 -26.363281 2.535156 -27.59375 4.203125 -27.59375 C 4.929688 -27.59375 5.5 -27.296875 5.90625 -26.703125 C 6.695312 -25.566406 6.828125 -23.929688 6.296875 -21.796875 L 6.90625 -21.796875 C 7.769531 -21.867188 8.679688 -21.90625 9.640625 -21.90625 C 10.609375 -21.90625 11.5625 -21.90625 12.5 -21.90625 C 13.832031 -21.90625 14.765625 -21.753906 15.296875 -21.453125 C 15.828125 -21.148438 16.226562 -20.832031 16.5 -20.5 C 17.03125 -19.632812 17.09375 -18.453125 16.6875 -16.953125 C 16.289062 -15.453125 15.5625 -13.332031 14.5 -10.59375 C 13.4375 -7.863281 12.96875 -5.878906 13.09375 -4.640625 C 13.226562 -3.410156 13.394531 -2.628906 13.59375 -2.296875 C 14 -1.765625 14.632812 -1.5 15.5 -1.5 C 16.632812 -1.5 17.984375 -2.148438 19.546875 -3.453125 C 21.117188 -4.753906 22.503906 -7.035156 23.703125 -10.296875 C 23.960938 -10.960938 24.394531 -11.164062 25 -10.90625 C 25.664062 -10.632812 25.863281 -10.195312 25.59375 -9.59375 C 25 -8.0625 24.316406 -6.660156 23.546875 -5.390625 C 22.785156 -4.128906 21.9375 -3.03125 21 -2.09375 C 19.269531 -0.363281 17.4375 0.5 15.5 0.5 Z M 4.203125 -25.59375 C 4.003906 -25.59375 3.71875 -25.394531 3.34375 -25 C 2.976562 -24.601562 2.695312 -24.035156 2.5 -23.296875 C 2.363281 -22.828125 2.363281 -22.492188 2.5 -22.296875 C 2.695312 -21.960938 3.265625 -21.796875 4.203125 -21.796875 L 4.203125 -21.90625 C 4.535156 -22.90625 4.664062 -23.703125 4.59375 -24.296875 C 4.53125 -24.898438 4.429688 -25.300781 4.296875 -25.5 Z M 4.203125 -25.59375 "/></g></g></g><g fill="#000000" fill-opacity="1"><g transform="translate(118.803053, 110.179561)"><g><path d="M 6.59375 0.40625 C 5.257812 0.40625 4.109375 0.125 3.140625 -0.4375 C 2.179688 -1.007812 1.4375 -1.5625 0.90625 -2.09375 C 0.695312 -2.300781 0.59375 -2.550781 0.59375 -2.84375 C 0.59375 -3.144531 0.695312 -3.363281 0.90625 -3.5 C 1.363281 -3.96875 1.828125 -3.96875 2.296875 -3.5 C 2.765625 -3.03125 3.347656 -2.59375 4.046875 -2.1875 C 4.742188 -1.789062 5.59375 -1.59375 6.59375 -1.59375 C 8.726562 -1.59375 10.410156 -2.207031 11.640625 -3.4375 C 12.878906 -4.675781 13.53125 -6.363281 13.59375 -8.5 C 13.800781 -11.5625 11.96875 -14.628906 8.09375 -17.703125 C 7.632812 -18.035156 7.1875 -18.367188 6.75 -18.703125 C 6.3125 -19.035156 5.925781 -19.367188 5.59375 -19.703125 C 5 -18.035156 4.347656 -16.265625 3.640625 -14.390625 C 2.941406 -12.523438 2.363281 -10.992188 1.90625 -9.796875 C 1.632812 -9.128906 1.195312 -8.929688 0.59375 -9.203125 C -0.0703125 -9.398438 -0.269531 -9.832031 0 -10.5 C 0.53125 -11.832031 1.175781 -13.515625 1.9375 -15.546875 C 2.707031 -17.578125 3.394531 -19.425781 4 -21.09375 C 3.269531 -21.894531 2.703125 -22.675781 2.296875 -23.4375 C 1.898438 -24.207031 1.703125 -25.0625 1.703125 -26 C 1.703125 -27.53125 2.066406 -28.828125 2.796875 -29.890625 C 3.535156 -30.960938 4.4375 -31.5 5.5 -31.5 C 6.101562 -31.5 6.570312 -31.378906 6.90625 -31.140625 C 7.238281 -30.910156 7.503906 -30.664062 7.703125 -30.40625 C 8.503906 -29.195312 8.238281 -26.757812 6.90625 -23.09375 C 6.832031 -22.894531 6.757812 -22.675781 6.6875 -22.4375 C 6.625 -22.207031 6.53125 -21.960938 6.40625 -21.703125 C 6.738281 -21.296875 7.15625 -20.910156 7.65625 -20.546875 C 8.15625 -20.179688 8.703125 -19.765625 9.296875 -19.296875 C 13.703125 -15.898438 15.800781 -12.269531 15.59375 -8.40625 C 15.46875 -5.664062 14.570312 -3.5 12.90625 -1.90625 C 11.238281 -0.363281 9.132812 0.40625 6.59375 0.40625 Z M 5.5 -29.5 C 5.03125 -29.5 4.613281 -29.179688 4.25 -28.546875 C 3.882812 -27.910156 3.703125 -27.0625 3.703125 -26 C 3.703125 -25.0625 4.066406 -24.128906 4.796875 -23.203125 C 4.929688 -23.460938 5 -23.660156 5 -23.796875 C 5.800781 -25.929688 6.203125 -27.363281 6.203125 -28.09375 C 6.203125 -28.832031 6.132812 -29.234375 6 -29.296875 C 6 -29.296875 5.960938 -29.328125 5.890625 -29.390625 C 5.828125 -29.460938 5.695312 -29.5 5.5 -29.5 Z M 5.5 -29.5 "/></g></g></g><g fill="#000000" fill-opacity="1"><g transform="translate(138.002313, 110.179561)"><g><path d="M 2.5 1.203125 C 1.96875 1.203125 1.5 1 1.09375 0.59375 C 0.695312 0.195312 0.5 -0.265625 0.5 -0.796875 C 0.5 -1.328125 0.695312 -1.789062 1.09375 -2.1875 C 1.5 -2.59375 1.96875 -2.796875 2.5 -2.796875 C 3.03125 -2.796875 3.492188 -2.59375 3.890625 -2.1875 C 4.296875 -1.789062 4.5 -1.328125 4.5 -0.796875 C 4.5 -0.265625 4.296875 0.195312 3.890625 0.59375 C 3.492188 1 3.03125 1.203125 2.5 1.203125 Z M 2.5 1.203125 "/></g></g></g><g fill="#000000" fill-opacity="1"><g transform="translate(145.902008, 110.179561)"><g/></g></g><g fill="#000000" fill-opacity="1"><g transform="translate(161.901397, 110.179561)"><g><path d="M 36.09375 -11.09375 C 36.757812 -10.832031 36.960938 -10.398438 36.703125 -9.796875 C 36.035156 -8.128906 35.316406 -6.660156 34.546875 -5.390625 C 33.785156 -4.128906 33.003906 -3.03125 32.203125 -2.09375 C 31.265625 -1.164062 30.332031 -0.5 29.40625 -0.09375 C 28.53125 0.238281 27.757812 0.40625 27.09375 0.40625 C 26.695312 0.40625 26.363281 0.367188 26.09375 0.296875 C 24.832031 0.0976562 23.96875 -0.5 23.5 -1.5 C 22.226562 -3.5 22.460938 -7.097656 24.203125 -12.296875 C 25.128906 -15.097656 25.59375 -17.03125 25.59375 -18.09375 C 25.59375 -19.164062 25.492188 -19.832031 25.296875 -20.09375 C 25.296875 -20.363281 25.03125 -20.5 24.5 -20.5 C 24.363281 -20.5 24.03125 -20.363281 23.5 -20.09375 C 22.96875 -19.832031 22.164062 -19.148438 21.09375 -18.046875 C 20.03125 -16.953125 18.632812 -15.132812 16.90625 -12.59375 C 15.363281 -10.332031 13.976562 -8.066406 12.75 -5.796875 C 11.519531 -3.535156 10.632812 -1.738281 10.09375 -0.40625 L 10.09375 -0.296875 C 9.832031 0.367188 9.398438 0.566406 8.796875 0.296875 C 8.128906 0.0351562 7.929688 -0.394531 8.203125 -1 C 8.203125 -1.0625 8.234375 -1.09375 8.296875 -1.09375 C 8.429688 -1.425781 8.863281 -2.609375 9.59375 -4.640625 C 10.332031 -6.679688 11.203125 -9.234375 12.203125 -12.296875 C 13.128906 -15.234375 13.5625 -17.21875 13.5 -18.25 C 13.4375 -19.28125 13.335938 -19.929688 13.203125 -20.203125 C 13.003906 -20.398438 12.769531 -20.5 12.5 -20.5 C 12.363281 -20.5 12.03125 -20.363281 11.5 -20.09375 C 10.96875 -19.832031 10.164062 -19.148438 9.09375 -18.046875 C 8.03125 -16.953125 6.632812 -15.132812 4.90625 -12.59375 C 3.363281 -10.332031 1.976562 -8.050781 0.75 -5.75 C -0.476562 -3.445312 -1.363281 -1.628906 -1.90625 -0.296875 C -1.96875 -0.0351562 -2.164062 0.160156 -2.5 0.296875 C -2.632812 0.367188 -2.800781 0.40625 -3 0.40625 L -3.40625 0.40625 C -4 0.132812 -4.164062 -0.300781 -3.90625 -0.90625 L 1.703125 -15.703125 C 2.429688 -17.628906 2.828125 -19.226562 2.890625 -20.5 C 2.960938 -21.769531 3 -22.503906 3 -22.703125 C 2.9375 -22.960938 2.953125 -23.207031 3.046875 -23.4375 C 3.148438 -23.675781 3.332031 -23.832031 3.59375 -23.90625 C 4.257812 -24.101562 4.695312 -23.867188 4.90625 -23.203125 C 4.96875 -22.929688 5.015625 -22.53125 5.046875 -22 C 5.078125 -21.46875 5.03125 -20.867188 4.90625 -20.203125 C 4.832031 -19.671875 4.695312 -18.9375 4.5 -18 C 4.300781 -17.0625 4 -16.03125 3.59375 -14.90625 L 2.90625 -13.203125 C 3.101562 -13.398438 3.234375 -13.566406 3.296875 -13.703125 C 4.160156 -14.960938 4.976562 -16.09375 5.75 -17.09375 C 6.519531 -18.09375 7.238281 -18.960938 7.90625 -19.703125 C 9.695312 -21.566406 11.226562 -22.5 12.5 -22.5 C 13.101562 -22.5 13.585938 -22.378906 13.953125 -22.140625 C 14.316406 -21.910156 14.597656 -21.664062 14.796875 -21.40625 C 15.796875 -19.9375 15.628906 -16.898438 14.296875 -12.296875 C 14.566406 -12.703125 14.898438 -13.171875 15.296875 -13.703125 C 16.160156 -14.960938 16.976562 -16.09375 17.75 -17.09375 C 18.519531 -18.09375 19.238281 -18.960938 19.90625 -19.703125 C 21.695312 -21.566406 23.226562 -22.5 24.5 -22.5 C 25.226562 -22.5 25.773438 -22.363281 26.140625 -22.09375 C 26.515625 -21.832031 26.800781 -21.566406 27 -21.296875 C 28.0625 -19.828125 27.757812 -16.628906 26.09375 -11.703125 C 25.632812 -10.429688 25.21875 -8.84375 24.84375 -6.9375 C 24.476562 -5.039062 24.597656 -3.59375 25.203125 -2.59375 C 25.535156 -2.0625 25.96875 -1.765625 26.5 -1.703125 C 27.894531 -1.429688 29.296875 -2.03125 30.703125 -3.5 C 31.429688 -4.226562 32.144531 -5.207031 32.84375 -6.4375 C 33.550781 -7.675781 34.203125 -9.03125 34.796875 -10.5 C 35.066406 -11.164062 35.5 -11.363281 36.09375 -11.09375 Z M 36.09375 -11.09375 "/></g></g></g><g fill="#000000" fill-opacity="1"><g transform="translate(197.000047, 110.179561)"><g><path d="M 7.59375 -25.90625 C 7.0625 -25.90625 6.59375 -26.101562 6.1875 -26.5 C 5.789062 -26.894531 5.59375 -27.363281 5.59375 -27.90625 C 5.59375 -28.4375 5.789062 -28.882812 6.1875 -29.25 C 6.59375 -29.613281 7.0625 -29.796875 7.59375 -29.796875 C 8.132812 -29.796875 8.585938 -29.613281 8.953125 -29.25 C 9.316406 -28.882812 9.5 -28.4375 9.5 -27.90625 C 9.5 -27.363281 9.316406 -26.894531 8.953125 -26.5 C 8.585938 -26.101562 8.132812 -25.90625 7.59375 -25.90625 Z M 4.09375 0.59375 C 3.96875 0.59375 3.820312 0.578125 3.65625 0.546875 C 3.488281 0.515625 3.335938 0.5 3.203125 0.5 C 1.796875 0.164062 0.726562 -0.597656 0 -1.796875 C -0.46875 -2.535156 -0.75 -3.703125 -0.84375 -5.296875 C -0.945312 -6.898438 -0.566406 -9.066406 0.296875 -11.796875 C 0.898438 -13.535156 1.515625 -15.253906 2.140625 -16.953125 C 2.773438 -18.648438 3.394531 -20.132812 4 -21.40625 C 4.195312 -22.070312 4.628906 -22.269531 5.296875 -22 C 5.898438 -21.726562 6.066406 -21.296875 5.796875 -20.703125 C 5.265625 -19.429688 4.679688 -17.960938 4.046875 -16.296875 C 3.410156 -14.628906 2.796875 -12.929688 2.203125 -11.203125 C 0.929688 -7.265625 0.765625 -4.460938 1.703125 -2.796875 C 2.097656 -2.128906 2.726562 -1.695312 3.59375 -1.5 C 4.53125 -1.300781 5.53125 -1.617188 6.59375 -2.453125 C 7.664062 -3.285156 8.679688 -4.414062 9.640625 -5.84375 C 10.609375 -7.28125 11.394531 -8.765625 12 -10.296875 C 12.269531 -10.898438 12.703125 -11.101562 13.296875 -10.90625 C 13.898438 -10.632812 14.066406 -10.195312 13.796875 -9.59375 C 13.328125 -8.332031 12.726562 -7.082031 12 -5.84375 C 11.269531 -4.613281 10.503906 -3.53125 9.703125 -2.59375 C 7.765625 -0.46875 5.894531 0.59375 4.09375 0.59375 Z M 4.09375 0.59375 "/></g></g></g><g fill="#000000" fill-opacity="1"><g transform="translate(209.299573, 110.179561)"><g><path d="M 4.09375 0.5 C 3.695312 0.5 3.234375 0.429688 2.703125 0.296875 C 1.367188 -0.0351562 0.398438 -0.800781 -0.203125 -2 C -1.460938 -4.394531 -1.09375 -8.160156 0.90625 -13.296875 L 2.40625 -17.203125 C 4.332031 -22.265625 6.257812 -27.210938 8.1875 -32.046875 C 10.125 -36.878906 11.863281 -40.796875 13.40625 -43.796875 C 13.664062 -44.460938 14.097656 -44.597656 14.703125 -44.203125 C 15.367188 -43.929688 15.5 -43.5 15.09375 -42.90625 C 13.632812 -39.96875 11.9375 -36.082031 10 -31.25 C 8.0625 -26.414062 6.128906 -21.5 4.203125 -16.5 L 2.703125 -12.59375 C 2.234375 -11.332031 1.765625 -9.71875 1.296875 -7.75 C 0.828125 -5.78125 0.894531 -4.164062 1.5 -2.90625 C 1.96875 -2.164062 2.5 -1.765625 3.09375 -1.703125 C 4.363281 -1.429688 5.628906 -1.675781 6.890625 -2.4375 C 8.160156 -3.207031 9.34375 -4.3125 10.4375 -5.75 C 11.539062 -7.1875 12.394531 -8.703125 13 -10.296875 C 13.269531 -10.960938 13.703125 -11.164062 14.296875 -10.90625 C 14.960938 -10.632812 15.164062 -10.195312 14.90625 -9.59375 C 14.363281 -8.132812 13.660156 -6.769531 12.796875 -5.5 C 11.929688 -4.226562 11 -3.128906 10 -2.203125 C 8.132812 -0.398438 6.164062 0.5 4.09375 0.5 Z M 4.09375 0.5 "/></g></g></g><g fill="#000000" fill-opacity="1"><g transform="translate(222.59906, 110.179561)"><g><path d="M 4.09375 0.5 C 3.695312 0.5 3.234375 0.429688 2.703125 0.296875 C 1.367188 -0.0351562 0.398438 -0.800781 -0.203125 -2 C -1.460938 -4.394531 -1.09375 -8.160156 0.90625 -13.296875 L 2.40625 -17.203125 C 4.332031 -22.265625 6.257812 -27.210938 8.1875 -32.046875 C 10.125 -36.878906 11.863281 -40.796875 13.40625 -43.796875 C 13.664062 -44.460938 14.097656 -44.597656 14.703125 -44.203125 C 15.367188 -43.929688 15.5 -43.5 15.09375 -42.90625 C 13.632812 -39.96875 11.9375 -36.082031 10 -31.25 C 8.0625 -26.414062 6.128906 -21.5 4.203125 -16.5 L 2.703125 -12.59375 C 2.234375 -11.332031 1.765625 -9.71875 1.296875 -7.75 C 0.828125 -5.78125 0.894531 -4.164062 1.5 -2.90625 C 1.96875 -2.164062 2.5 -1.765625 3.09375 -1.703125 C 4.363281 -1.429688 5.628906 -1.675781 6.890625 -2.4375 C 8.160156 -3.207031 9.34375 -4.3125 10.4375 -5.75 C 11.539062 -7.1875 12.394531 -8.703125 13 -10.296875 C 13.269531 -10.960938 13.703125 -11.164062 14.296875 -10.90625 C 14.960938 -10.632812 15.164062 -10.195312 14.90625 -9.59375 C 14.363281 -8.132812 13.660156 -6.769531 12.796875 -5.5 C 11.929688 -4.226562 11 -3.128906 10 -2.203125 C 8.132812 -0.398438 6.164062 0.5 4.09375 0.5 Z M 4.09375 0.5 "/></g></g></g><g fill="#000000" fill-opacity="1"><g transform="translate(235.898547, 110.179561)"><g><path d="M 9.09375 0.5 C 6.425781 0.5 4.226562 -0.195312 2.5 -1.59375 C 0.5 -3.195312 -0.5 -5.300781 -0.5 -7.90625 C -0.5 -11.570312 0.734375 -14.90625 3.203125 -17.90625 C 5.671875 -20.769531 8.269531 -22.203125 11 -22.203125 C 13.269531 -22.203125 14.867188 -21.535156 15.796875 -20.203125 C 16.796875 -18.867188 16.894531 -17.066406 16.09375 -14.796875 C 15.226562 -12.398438 13.394531 -10.5 10.59375 -9.09375 C 8 -7.695312 5 -6.898438 1.59375 -6.703125 C 1.925781 -5.234375 2.628906 -4.066406 3.703125 -3.203125 C 5.171875 -2.066406 6.96875 -1.5 9.09375 -1.5 C 11.757812 -1.5 14.195312 -2.300781 16.40625 -3.90625 C 18.863281 -5.632812 20.59375 -7.898438 21.59375 -10.703125 C 21.863281 -11.296875 22.300781 -11.460938 22.90625 -11.203125 C 23.5 -11.003906 23.695312 -10.570312 23.5 -9.90625 C 22.300781 -6.769531 20.332031 -4.234375 17.59375 -2.296875 C 14.925781 -0.429688 12.09375 0.5 9.09375 0.5 Z M 11 -20.203125 C 8.863281 -20.203125 6.796875 -19 4.796875 -16.59375 C 2.796875 -14.257812 1.726562 -11.628906 1.59375 -8.703125 C 5 -8.835938 7.816406 -9.601562 10.046875 -11 C 12.285156 -12.394531 13.671875 -13.894531 14.203125 -15.5 C 14.734375 -17.03125 14.734375 -18.226562 14.203125 -19.09375 C 13.671875 -19.832031 12.601562 -20.203125 11 -20.203125 Z M 11 -20.203125 "/></g></g></g><g fill="#000000" fill-opacity="1"><g transform="translate(257.897695, 110.179561)"><g><path d="M 15.5 0.5 C 13.96875 0.5 12.800781 -0.0664062 12 -1.203125 C 10.53125 -3.265625 10.726562 -6.628906 12.59375 -11.296875 C 13.332031 -13.160156 13.96875 -14.859375 14.5 -16.390625 C 15.03125 -17.929688 15.128906 -18.9375 14.796875 -19.40625 C 14.734375 -19.53125 14.535156 -19.644531 14.203125 -19.75 C 13.867188 -19.851562 13.300781 -19.90625 12.5 -19.90625 C 11.632812 -19.90625 10.703125 -19.90625 9.703125 -19.90625 C 8.703125 -19.90625 7.769531 -19.867188 6.90625 -19.796875 L 5.59375 -19.796875 C 5.132812 -18.597656 4.601562 -17.234375 4 -15.703125 C 3.394531 -14.171875 2.859375 -12.835938 2.390625 -11.703125 C 1.929688 -10.566406 1.664062 -9.929688 1.59375 -9.796875 C 1.332031 -9.203125 0.898438 -9.035156 0.296875 -9.296875 C -0.367188 -9.566406 -0.566406 -10 -0.296875 -10.59375 C -0.234375 -10.59375 -0.00390625 -11.109375 0.390625 -12.140625 C 0.796875 -13.179688 1.296875 -14.414062 1.890625 -15.84375 C 2.492188 -17.28125 3.03125 -18.597656 3.5 -19.796875 C 2.769531 -19.929688 2.203125 -20.113281 1.796875 -20.34375 C 1.398438 -20.582031 1.101562 -20.832031 0.90625 -21.09375 C 0.695312 -21.363281 0.523438 -21.734375 0.390625 -22.203125 C 0.265625 -22.671875 0.332031 -23.238281 0.59375 -23.90625 C 1.332031 -26.363281 2.535156 -27.59375 4.203125 -27.59375 C 4.929688 -27.59375 5.5 -27.296875 5.90625 -26.703125 C 6.695312 -25.566406 6.828125 -23.929688 6.296875 -21.796875 L 6.90625 -21.796875 C 7.769531 -21.867188 8.679688 -21.90625 9.640625 -21.90625 C 10.609375 -21.90625 11.5625 -21.90625 12.5 -21.90625 C 13.832031 -21.90625 14.765625 -21.753906 15.296875 -21.453125 C 15.828125 -21.148438 16.226562 -20.832031 16.5 -20.5 C 17.03125 -19.632812 17.09375 -18.453125 16.6875 -16.953125 C 16.289062 -15.453125 15.5625 -13.332031 14.5 -10.59375 C 13.4375 -7.863281 12.96875 -5.878906 13.09375 -4.640625 C 13.226562 -3.410156 13.394531 -2.628906 13.59375 -2.296875 C 14 -1.765625 14.632812 -1.5 15.5 -1.5 C 16.632812 -1.5 17.984375 -2.148438 19.546875 -3.453125 C 21.117188 -4.753906 22.503906 -7.035156 23.703125 -10.296875 C 23.960938 -10.960938 24.394531 -11.164062 25 -10.90625 C 25.664062 -10.632812 25.863281 -10.195312 25.59375 -9.59375 C 25 -8.0625 24.316406 -6.660156 23.546875 -5.390625 C 22.785156 -4.128906 21.9375 -3.03125 21 -2.09375 C 19.269531 -0.363281 17.4375 0.5 15.5 0.5 Z M 4.203125 -25.59375 C 4.003906 -25.59375 3.71875 -25.394531 3.34375 -25 C 2.976562 -24.601562 2.695312 -24.035156 2.5 -23.296875 C 2.363281 -22.828125 2.363281 -22.492188 2.5 -22.296875 C 2.695312 -21.960938 3.265625 -21.796875 4.203125 -21.796875 L 4.203125 -21.90625 C 4.535156 -22.90625 4.664062 -23.703125 4.59375 -24.296875 C 4.53125 -24.898438 4.429688 -25.300781 4.296875 -25.5 Z M 4.203125 -25.59375 "/></g></g></g><g fill="#000000" fill-opacity="1"><g transform="translate(281.896755, 110.179561)"><g><path d="M 8.59375 -30.796875 C 8.257812 -30.796875 7.992188 -30.929688 7.796875 -31.203125 C 7.398438 -31.671875 7.4375 -32.132812 7.90625 -32.59375 C 8.164062 -32.863281 8.546875 -33.460938 9.046875 -34.390625 C 9.546875 -35.328125 10.0625 -36.378906 10.59375 -37.546875 C 11.132812 -38.710938 11.46875 -39.695312 11.59375 -40.5 C 11.726562 -41.164062 12.128906 -41.429688 12.796875 -41.296875 C 13.460938 -41.160156 13.726562 -40.757812 13.59375 -40.09375 C 13.394531 -39.226562 13.078125 -38.296875 12.640625 -37.296875 C 12.210938 -36.296875 11.898438 -35.53125 11.703125 -35 C 11.503906 -34.664062 11.15625 -34.03125 10.65625 -33.09375 C 10.15625 -32.164062 9.671875 -31.5 9.203125 -31.09375 C 9.003906 -30.894531 8.800781 -30.796875 8.59375 -30.796875 Z M 8.59375 -30.796875 "/></g></g></g><g fill="#000000" fill-opacity="1"><g transform="translate(298.896083, 110.179561)"><g><path d="M 6.59375 0.40625 C 5.257812 0.40625 4.109375 0.125 3.140625 -0.4375 C 2.179688 -1.007812 1.4375 -1.5625 0.90625 -2.09375 C 0.695312 -2.300781 0.59375 -2.550781 0.59375 -2.84375 C 0.59375 -3.144531 0.695312 -3.363281 0.90625 -3.5 C 1.363281 -3.96875 1.828125 -3.96875 2.296875 -3.5 C 2.765625 -3.03125 3.347656 -2.59375 4.046875 -2.1875 C 4.742188 -1.789062 5.59375 -1.59375 6.59375 -1.59375 C 8.726562 -1.59375 10.410156 -2.207031 11.640625 -3.4375 C 12.878906 -4.675781 13.53125 -6.363281 13.59375 -8.5 C 13.800781 -11.5625 11.96875 -14.628906 8.09375 -17.703125 C 7.632812 -18.035156 7.1875 -18.367188 6.75 -18.703125 C 6.3125 -19.035156 5.925781 -19.367188 5.59375 -19.703125 C 5 -18.035156 4.347656 -16.265625 3.640625 -14.390625 C 2.941406 -12.523438 2.363281 -10.992188 1.90625 -9.796875 C 1.632812 -9.128906 1.195312 -8.929688 0.59375 -9.203125 C -0.0703125 -9.398438 -0.269531 -9.832031 0 -10.5 C 0.53125 -11.832031 1.175781 -13.515625 1.9375 -15.546875 C 2.707031 -17.578125 3.394531 -19.425781 4 -21.09375 C 3.269531 -21.894531 2.703125 -22.675781 2.296875 -23.4375 C 1.898438 -24.207031 1.703125 -25.0625 1.703125 -26 C 1.703125 -27.53125 2.066406 -28.828125 2.796875 -29.890625 C 3.535156 -30.960938 4.4375 -31.5 5.5 -31.5 C 6.101562 -31.5 6.570312 -31.378906 6.90625 -31.140625 C 7.238281 -30.910156 7.503906 -30.664062 7.703125 -30.40625 C 8.503906 -29.195312 8.238281 -26.757812 6.90625 -23.09375 C 6.832031 -22.894531 6.757812 -22.675781 6.6875 -22.4375 C 6.625 -22.207031 6.53125 -21.960938 6.40625 -21.703125 C 6.738281 -21.296875 7.15625 -20.910156 7.65625 -20.546875 C 8.15625 -20.179688 8.703125 -19.765625 9.296875 -19.296875 C 13.703125 -15.898438 15.800781 -12.269531 15.59375 -8.40625 C 15.46875 -5.664062 14.570312 -3.5 12.90625 -1.90625 C 11.238281 -0.363281 9.132812 0.40625 6.59375 0.40625 Z M 5.5 -29.5 C 5.03125 -29.5 4.613281 -29.179688 4.25 -28.546875 C 3.882812 -27.910156 3.703125 -27.0625 3.703125 -26 C 3.703125 -25.0625 4.066406 -24.128906 4.796875 -23.203125 C 4.929688 -23.460938 5 -23.660156 5 -23.796875 C 5.800781 -25.929688 6.203125 -27.363281 6.203125 -28.09375 C 6.203125 -28.832031 6.132812 -29.234375 6 -29.296875 C 6 -29.296875 5.960938 -29.328125 5.890625 -29.390625 C 5.828125 -29.460938 5.695312 -29.5 5.5 -29.5 Z M 5.5 -29.5 "/></g></g></g><path fill="#f7d9c4" d="M -1.183594 279.496094 C 3.28125 267.011719 8.164062 254.929688 13.546875 243.164062 C 19.015625 231.296875 24.921875 219.816406 31.21875 208.765625 C 40.800781 218.367188 51.335938 227.097656 62.601562 234.839844 C 57.703125 238.933594 52.695312 242.960938 47.570312 246.90625 C 42.449219 250.839844 37.171875 254.746094 31.898438 258.410156 C 26.601562 262.105469 21.195312 265.726562 15.671875 269.246094 C 12.914062 271.007812 10.128906 272.75 7.308594 274.464844 C 4.492188 276.191406 1.648438 277.878906 -1.175781 279.496094 Z M -1.183594 279.496094 " fill-opacity="1" fill-rule="nonzero"/><path fill="#faedcb" d="M 47.023438 312.261719 C 49.015625 299.160156 51.496094 286.324219 54.453125 273.765625 C 57.496094 261.066406 61.035156 248.621094 65.019531 236.523438 C 76.359375 244.15625 88.472656 250.726562 101.050781 256.191406 C 97.023438 261.144531 92.871094 266.042969 88.589844 270.886719 C 86.449219 273.304688 84.277344 275.714844 82.074219 278.109375 C 79.871094 280.496094 77.632812 282.890625 75.398438 285.191406 C 66.425781 294.464844 56.949219 303.535156 47.023438 312.269531 Z M 47.023438 312.261719 " fill-opacity="1" fill-rule="nonzero"/><path fill="#f2c6de" d="M 100.480469 335.148438 C 99.949219 321.941406 99.964844 308.820312 100.480469 295.929688 C 100.601562 292.722656 100.789062 289.445312 101.003906 286.203125 C 101.210938 282.960938 101.457031 279.726562 101.734375 276.507812 C 102.289062 270.070312 102.96875 263.683594 103.769531 257.355469 C 116.40625 262.683594 129.511719 266.917969 142.863281 269.859375 C 136.859375 281.097656 130.289062 292.238281 123.203125 303.203125 C 116.160156 314.007812 108.582031 324.667969 100.472656 335.148438 Z M 100.480469 335.148438 " fill-opacity="1" fill-rule="nonzero"/><path fill="#c6def1" d="M 157.457031 347.421875 C 156.671875 344.257812 155.941406 341.039062 155.238281 337.804688 C 154.539062 334.585938 153.875 331.367188 153.246094 328.148438 C 151.980469 321.71875 150.863281 315.308594 149.886719 308.925781 C 148.902344 302.582031 148.09375 296.066406 147.398438 289.652344 C 146.714844 283.222656 146.167969 276.816406 145.757812 270.445312 C 159.136719 273.257812 172.726562 274.851562 186.28125 275.160156 C 182.628906 287.347656 178.394531 299.539062 173.582031 311.683594 C 168.777344 323.703125 163.402344 335.570312 157.449219 347.421875 Z M 157.457031 347.421875 " fill-opacity="1" fill-rule="nonzero"/><g clip-path="url(#76e2f552cb)"><path fill="#f7d9c4" d="M 212.054688 348.570312 C 206.609375 336.480469 201.734375 324.398438 197.4375 312.191406 C 193.132812 299.847656 189.414062 287.496094 186.28125 275.167969 C 199.839844 275.429688 213.488281 274.40625 226.960938 272.15625 C 226.285156 278.5 225.46875 284.878906 224.515625 291.277344 C 223.558594 297.660156 222.472656 304.136719 221.226562 310.4375 C 219.976562 316.773438 218.59375 323.132812 217.066406 329.503906 C 216.304688 332.691406 215.503906 335.871094 214.671875 339.066406 C 213.839844 342.261719 212.972656 345.449219 212.054688 348.578125 Z M 212.054688 348.570312 " fill-opacity="1" fill-rule="nonzero"/></g><path fill="#faedcb" d="M 269.492188 338.6875 C 261.839844 327.878906 254.707031 316.910156 248.125 305.824219 C 241.5 294.574219 235.410156 283.160156 229.875 271.679688 C 243.34375 269.300781 256.617188 265.617188 269.460938 260.820312 C 270 267.179688 270.410156 273.589844 270.6875 280.042969 C 270.824219 283.269531 270.933594 286.511719 271.011719 289.757812 C 271.085938 293.007812 271.132812 296.289062 271.125 299.492188 C 271.109375 312.398438 270.578125 325.507812 269.492188 338.683594 Z M 269.492188 338.6875 " fill-opacity="1" fill-rule="nonzero"/><path fill="#f2c6de" d="M 323.859375 318.058594 C 314.3125 308.917969 305.214844 299.460938 296.636719 289.820312 C 294.503906 287.425781 292.363281 284.9375 290.261719 282.460938 C 288.160156 279.980469 286.097656 277.484375 284.054688 274.972656 C 279.980469 269.960938 276.039062 264.886719 272.21875 259.773438 C 285.011719 254.835938 297.386719 248.785156 309.042969 241.628906 C 312.515625 253.890625 315.527344 266.464844 318.039062 279.285156 C 320.464844 291.953125 322.414062 304.890625 323.851562 318.058594 Z M 323.859375 318.058594 " fill-opacity="1" fill-rule="nonzero"/><g clip-path="url(#1c5a9dc812)"><path fill="#c6def1" d="M 373.398438 287.347656 C 370.640625 285.617188 367.875 283.808594 365.128906 281.964844 C 362.386719 280.132812 359.675781 278.277344 356.988281 276.40625 C 351.621094 272.65625 346.367188 268.820312 341.226562 264.902344 C 336.113281 261.019531 331.007812 256.894531 326.054688 252.75 C 321.09375 248.601562 316.257812 244.363281 311.539062 240.066406 C 323.121094 232.804688 334.007812 224.519531 343.980469 215.332031 C 349.820312 226.636719 355.230469 238.351562 360.199219 250.441406 C 365.082031 262.429688 369.449219 274.695312 373.398438 287.355469 Z M 373.398438 287.347656 " fill-opacity="1" fill-rule="nonzero"/></g><g clip-path="url(#b69cc54b70)"><path fill="#000000" d="M 194.398438 278.515625 C 193.695312 278.515625 192.996094 278.515625 192.292969 278.507812 L 192.292969 277.625 C 193.003906 277.625 193.703125 277.632812 194.398438 277.632812 L 194.8125 277.632812 C 194.8125 277.632812 194.8125 278.515625 194.8125 278.515625 L 194.390625 278.515625 Z M 197.339844 278.492188 L 197.324219 277.609375 C 198.164062 277.59375 199 277.578125 199.839844 277.554688 L 199.863281 278.441406 C 199.023438 278.460938 198.179688 278.476562 197.332031 278.492188 Z M 189.769531 278.460938 C 188.929688 278.441406 188.089844 278.417969 187.25 278.386719 L 187.28125 277.5 C 188.121094 277.53125 188.953125 277.554688 189.792969 277.578125 Z M 202.398438 278.355469 L 202.359375 277.46875 C 203.199219 277.4375 204.039062 277.390625 204.878906 277.347656 L 204.921875 278.230469 C 204.085938 278.277344 203.238281 278.316406 202.398438 278.355469 Z M 184.726562 278.285156 C 183.886719 278.246094 183.046875 278.199219 182.207031 278.148438 L 182.261719 277.261719 C 183.101562 277.316406 183.929688 277.355469 184.769531 277.398438 Z M 207.449219 278.085938 L 207.386719 277.199219 C 208.226562 277.144531 209.066406 277.085938 209.898438 277.015625 L 209.96875 277.902344 C 209.128906 277.96875 208.289062 278.03125 207.441406 278.085938 Z M 179.6875 277.984375 C 178.847656 277.921875 178.011719 277.863281 177.171875 277.792969 L 177.246094 276.90625 C 178.078125 276.976562 178.917969 277.046875 179.75 277.101562 Z M 212.492188 277.675781 L 212.410156 276.792969 C 213.246094 276.714844 214.078125 276.628906 214.910156 276.546875 L 215.003906 277.421875 C 214.164062 277.507812 213.324219 277.59375 212.484375 277.667969 Z M 174.660156 277.5625 C 173.820312 277.484375 172.988281 277.398438 172.148438 277.308594 L 172.242188 276.429688 C 173.074219 276.523438 173.914062 276.605469 174.746094 276.683594 Z M 217.523438 277.144531 L 217.421875 276.269531 C 218.253906 276.167969 219.085938 276.066406 219.917969 275.953125 L 220.03125 276.832031 C 219.199219 276.9375 218.359375 277.046875 217.523438 277.144531 Z M 169.640625 277.023438 C 168.800781 276.921875 167.96875 276.824219 167.136719 276.707031 L 167.253906 275.828125 C 168.082031 275.9375 168.914062 276.042969 169.746094 276.136719 L 169.640625 277.015625 Z M 222.535156 276.484375 L 222.410156 275.605469 C 223.242188 275.484375 224.066406 275.359375 224.898438 275.226562 L 225.039062 276.105469 C 224.207031 276.238281 223.375 276.359375 222.542969 276.484375 Z M 164.632812 276.367188 C 163.800781 276.253906 162.96875 276.128906 162.140625 276 L 162.269531 275.121094 C 163.101562 275.25 163.925781 275.367188 164.757812 275.492188 Z M 227.523438 275.699219 L 227.378906 274.828125 C 228.203125 274.6875 229.027344 274.542969 229.851562 274.390625 L 230.011719 275.257812 C 229.1875 275.414062 228.355469 275.558594 227.523438 275.699219 Z M 159.636719 275.605469 C 158.804688 275.46875 157.972656 275.328125 157.148438 275.183594 L 157.304688 274.3125 C 158.125 274.457031 158.957031 274.597656 159.78125 274.734375 Z M 232.492188 274.789062 L 232.324219 273.917969 C 233.144531 273.757812 233.960938 273.597656 234.785156 273.417969 L 234.964844 274.289062 C 234.140625 274.457031 233.316406 274.628906 232.492188 274.789062 Z M 154.660156 274.726562 C 153.835938 274.574219 153.003906 274.414062 152.183594 274.25 L 152.351562 273.378906 C 153.175781 273.542969 154 273.703125 154.824219 273.859375 Z M 237.429688 273.757812 L 237.234375 272.894531 C 238.050781 272.71875 238.867188 272.527344 239.683594 272.339844 L 239.882812 273.203125 C 239.066406 273.394531 238.246094 273.582031 237.421875 273.765625 Z M 149.703125 273.742188 C 148.878906 273.574219 148.054688 273.394531 147.230469 273.210938 L 147.421875 272.347656 C 148.238281 272.527344 149.0625 272.703125 149.878906 272.878906 L 149.695312 273.75 Z M 144.773438 272.65625 C 143.957031 272.464844 143.132812 272.269531 142.316406 272.070312 L 142.523438 271.207031 C 143.339844 271.410156 144.15625 271.601562 144.972656 271.785156 L 144.773438 272.648438 Z M 242.339844 272.609375 L 242.125 271.746094 C 242.941406 271.546875 243.75 271.339844 244.558594 271.132812 L 244.78125 271.988281 C 243.964844 272.195312 243.148438 272.402344 242.332031 272.601562 Z M 139.859375 271.460938 C 139.042969 271.253906 138.226562 271.046875 137.417969 270.832031 L 137.644531 269.976562 C 138.453125 270.191406 139.269531 270.398438 140.078125 270.609375 Z M 247.222656 271.347656 L 246.992188 270.492188 C 247.800781 270.277344 248.609375 270.054688 249.410156 269.824219 L 249.648438 270.675781 C 248.839844 270.910156 248.03125 271.132812 247.214844 271.355469 Z M 134.980469 270.167969 C 134.171875 269.945312 133.355469 269.714844 132.546875 269.484375 L 132.792969 268.628906 C 133.601562 268.859375 134.410156 269.089844 135.21875 269.308594 L 134.980469 270.160156 Z M 252.074219 269.96875 L 251.820312 269.121094 C 252.621094 268.882812 253.421875 268.644531 254.222656 268.398438 L 254.484375 269.246094 C 253.683594 269.492188 252.875 269.738281 252.074219 269.976562 Z M 130.121094 268.773438 C 129.3125 268.535156 128.511719 268.289062 127.703125 268.042969 L 127.964844 267.195312 C 128.765625 267.441406 129.566406 267.691406 130.375 267.929688 Z M 256.886719 268.484375 L 256.617188 267.644531 C 257.417969 267.390625 258.210938 267.128906 259.003906 266.867188 L 259.28125 267.703125 C 258.480469 267.972656 257.6875 268.230469 256.886719 268.492188 Z M 125.292969 267.289062 C 124.492188 267.035156 123.691406 266.773438 122.886719 266.511719 L 123.164062 265.671875 C 123.957031 265.933594 124.761719 266.195312 125.5625 266.449219 L 125.292969 267.296875 Z M 261.667969 266.886719 L 261.375 266.050781 C 262.171875 265.78125 262.957031 265.503906 263.75 265.21875 L 264.050781 266.050781 C 263.257812 266.335938 262.460938 266.613281 261.667969 266.882812 Z M 120.492188 265.703125 C 119.699219 265.433594 118.898438 265.15625 118.105469 264.878906 L 118.398438 264.046875 C 119.191406 264.324219 119.984375 264.601562 120.777344 264.871094 L 120.492188 265.710938 Z M 266.414062 265.195312 L 266.105469 264.363281 C 266.890625 264.070312 267.675781 263.777344 268.453125 263.476562 L 268.769531 264.300781 C 267.984375 264.601562 267.199219 264.894531 266.414062 265.1875 Z M 115.726562 264.03125 C 114.933594 263.746094 114.148438 263.453125 113.355469 263.160156 L 113.664062 262.328125 C 114.449219 262.621094 115.234375 262.914062 116.027344 263.199219 Z M 271.117188 263.398438 L 270.792969 262.578125 C 271.574219 262.269531 272.351562 261.960938 273.128906 261.644531 L 273.460938 262.46875 C 272.679688 262.785156 271.902344 263.09375 271.117188 263.398438 Z M 111 262.269531 C 110.214844 261.96875 109.429688 261.660156 108.640625 261.351562 L 108.964844 260.527344 C 109.742188 260.835938 110.527344 261.136719 111.316406 261.445312 Z M 275.792969 261.507812 L 275.453125 260.691406 C 276.222656 260.367188 276.992188 260.042969 277.765625 259.710938 L 278.117188 260.527344 C 277.347656 260.859375 276.578125 261.191406 275.800781 261.511719 Z M 106.308594 260.414062 C 105.53125 260.097656 104.753906 259.773438 103.976562 259.449219 L 104.316406 258.632812 C 105.09375 258.957031 105.863281 259.273438 106.640625 259.589844 Z M 280.421875 259.511719 L 280.066406 258.703125 C 280.828125 258.363281 281.589844 258.023438 282.355469 257.679688 L 282.714844 258.488281 C 281.953125 258.832031 281.183594 259.179688 280.421875 259.519531 Z M 101.640625 258.472656 C 100.871094 258.140625 100.09375 257.808594 99.324219 257.472656 L 99.679688 256.664062 C 100.449219 257 101.21875 257.332031 101.988281 257.664062 L 101.640625 258.480469 Z M 285.003906 257.433594 L 284.632812 256.632812 C 285.386719 256.277344 286.148438 255.921875 286.90625 255.5625 L 287.289062 256.363281 C 286.535156 256.722656 285.773438 257.085938 285.011719 257.441406 Z M 97.015625 256.445312 C 96.246094 256.101562 95.480469 255.753906 94.71875 255.40625 L 95.089844 254.605469 C 95.851562 254.953125 96.613281 255.300781 97.375 255.644531 L 97.015625 256.453125 Z M 289.546875 255.261719 L 289.152344 254.46875 C 289.898438 254.097656 290.65625 253.726562 291.402344 253.351562 L 291.800781 254.144531 C 291.046875 254.519531 290.300781 254.890625 289.546875 255.261719 Z M 92.433594 254.335938 C 91.671875 253.980469 90.90625 253.621094 90.152344 253.25 L 90.539062 252.449219 C 91.292969 252.8125 92.046875 253.171875 92.808594 253.527344 L 92.433594 254.328125 Z M 294.050781 253.003906 L 293.644531 252.21875 C 294.390625 251.832031 295.128906 251.449219 295.867188 251.0625 L 296.285156 251.847656 C 295.535156 252.242188 294.796875 252.628906 294.050781 253.011719 Z M 87.890625 252.148438 C 87.132812 251.78125 86.378906 251.402344 85.632812 251.023438 L 86.035156 250.230469 C 86.78125 250.609375 87.535156 250.980469 88.28125 251.347656 L 87.890625 252.140625 Z M 298.507812 250.664062 L 298.09375 249.886719 C 298.832031 249.492188 299.566406 249.09375 300.296875 248.691406 L 300.71875 249.46875 C 299.980469 249.871094 299.25 250.269531 298.507812 250.671875 Z M 83.375 249.878906 C 82.628906 249.492188 81.882812 249.109375 81.136719 248.714844 L 81.542969 247.929688 C 82.28125 248.324219 83.03125 248.707031 83.777344 249.09375 L 83.367188 249.878906 Z M 302.921875 248.246094 L 302.492188 247.476562 C 303.222656 247.066406 303.945312 246.660156 304.675781 246.242188 L 305.117188 247.011719 C 304.386719 247.429688 303.660156 247.84375 302.929688 248.253906 Z M 78.910156 247.535156 C 78.171875 247.136719 77.433594 246.734375 76.691406 246.335938 L 77.117188 245.558594 C 77.847656 245.957031 78.585938 246.359375 79.324219 246.757812 Z M 307.289062 245.75 L 306.839844 244.988281 C 307.566406 244.566406 308.289062 244.140625 309.003906 243.71875 L 309.460938 244.480469 C 308.734375 244.910156 308.011719 245.335938 307.289062 245.757812 Z M 74.484375 245.117188 C 73.75 244.710938 73.019531 244.296875 72.289062 243.878906 L 72.726562 243.109375 C 73.457031 243.523438 74.183594 243.933594 74.914062 244.339844 L 74.484375 245.109375 Z M 311.617188 243.179688 L 311.152344 242.421875 C 311.871094 241.992188 312.578125 241.554688 313.292969 241.113281 L 313.757812 241.871094 C 313.039062 242.308594 312.324219 242.746094 311.609375 243.1875 Z M 70.101562 242.617188 C 69.375 242.191406 68.652344 241.769531 67.929688 241.339844 L 68.382812 240.574219 C 69.105469 241 69.824219 241.429688 70.546875 241.847656 L 70.101562 242.609375 Z M 315.898438 240.53125 L 315.429688 239.78125 C 316.136719 239.335938 316.84375 238.890625 317.546875 238.433594 L 318.023438 239.183594 C 317.316406 239.636719 316.605469 240.082031 315.898438 240.53125 Z M 65.765625 240.042969 C 65.050781 239.613281 64.332031 239.175781 63.617188 238.734375 L 64.078125 237.980469 C 64.796875 238.417969 65.503906 238.859375 66.226562 239.289062 Z M 320.140625 237.820312 L 319.65625 237.078125 C 320.355469 236.625 321.058594 236.164062 321.75 235.699219 L 322.234375 236.441406 C 321.535156 236.902344 320.832031 237.363281 320.132812 237.828125 Z M 61.476562 237.402344 C 60.769531 236.957031 60.050781 236.507812 59.351562 236.054688 L 59.828125 235.308594 C 60.535156 235.761719 61.238281 236.210938 61.953125 236.65625 L 61.484375 237.402344 Z M 324.335938 235.039062 L 323.84375 234.308594 C 324.539062 233.835938 325.230469 233.367188 325.921875 232.898438 L 326.425781 233.628906 C 325.730469 234.105469 325.039062 234.578125 324.34375 235.046875 Z M 57.234375 234.691406 C 56.53125 234.230469 55.824219 233.777344 55.128906 233.304688 L 55.625 232.566406 C 56.324219 233.027344 57.015625 233.492188 57.726562 233.945312 L 57.242188 234.683594 Z M 328.496094 232.191406 L 327.988281 231.464844 C 328.671875 230.988281 329.359375 230.503906 330.042969 230.019531 L 330.558594 230.742188 C 329.875 231.226562 329.1875 231.710938 328.503906 232.191406 Z M 53.035156 231.90625 C 52.34375 231.433594 51.648438 230.964844 50.957031 230.488281 L 51.457031 229.757812 C 52.152344 230.234375 52.835938 230.703125 53.527344 231.171875 Z M 332.601562 229.277344 L 332.085938 228.5625 C 332.761719 228.070312 333.441406 227.585938 334.117188 227.085938 L 334.640625 227.800781 C 333.964844 228.292969 333.285156 228.785156 332.601562 229.277344 Z M 48.886719 229.046875 C 48.199219 228.5625 47.515625 228.085938 46.828125 227.59375 L 47.34375 226.867188 C 48.023438 227.355469 48.707031 227.839844 49.394531 228.316406 L 48.886719 229.039062 Z M 336.667969 226.304688 L 336.136719 225.597656 C 336.804688 225.097656 337.476562 224.597656 338.144531 224.097656 L 338.675781 224.804688 C 338.007812 225.3125 337.335938 225.8125 336.660156 226.3125 Z M 44.78125 226.128906 C 44.101562 225.636719 43.425781 225.144531 42.75 224.644531 L 43.273438 223.933594 C 43.941406 224.433594 44.621094 224.929688 45.296875 225.421875 L 44.773438 226.136719 Z M 340.6875 223.28125 L 340.148438 222.578125 C 340.808594 222.070312 341.472656 221.5625 342.132812 221.046875 L 342.679688 221.746094 C 342.019531 222.261719 341.355469 222.78125 340.6875 223.289062 Z M 40.730469 223.140625 C 40.0625 222.640625 39.390625 222.132812 38.722656 221.625 L 39.257812 220.921875 C 39.921875 221.433594 40.59375 221.941406 41.261719 222.441406 L 40.730469 223.148438 Z M 344.667969 220.191406 L 344.121094 219.5 C 344.773438 218.984375 345.4375 218.460938 346.085938 217.9375 L 346.636719 218.628906 C 345.984375 219.152344 345.320312 219.675781 344.667969 220.191406 Z M 36.734375 220.085938 C 36.070312 219.566406 35.410156 219.050781 34.753906 218.527344 L 35.300781 217.835938 C 35.957031 218.351562 36.617188 218.867188 37.273438 219.382812 L 36.726562 220.085938 Z M 348.601562 217.042969 L 348.046875 216.355469 C 348.695312 215.824219 349.347656 215.300781 349.996094 214.769531 L 350.558594 215.457031 C 349.910156 215.988281 349.257812 216.519531 348.609375 217.050781 Z M 32.785156 216.957031 C 32.128906 216.433594 31.480469 215.902344 30.828125 215.371094 L 31.390625 214.6875 C 32.035156 215.21875 32.683594 215.742188 33.339844 216.265625 Z M 352.492188 213.839844 L 351.921875 213.160156 C 352.566406 212.621094 353.207031 212.082031 353.847656 211.542969 L 354.417969 212.222656 C 353.777344 212.761719 353.128906 213.308594 352.484375 213.839844 Z M 28.886719 213.769531 C 28.238281 213.230469 27.601562 212.691406 26.960938 212.152344 L 27.53125 211.476562 C 28.171875 212.015625 28.808594 212.554688 29.449219 213.09375 L 28.878906 213.769531 Z M 356.339844 210.589844 L 355.765625 209.917969 C 356.402344 209.371094 357.035156 208.824219 357.664062 208.277344 L 358.242188 208.949219 C 357.613281 209.496094 356.972656 210.050781 356.332031 210.597656 Z M 25.050781 210.511719 C 24.414062 209.964844 23.78125 209.410156 23.148438 208.863281 L 23.734375 208.195312 C 24.367188 208.75 25 209.296875 25.628906 209.84375 Z M 360.152344 207.285156 L 359.566406 206.625 C 360.199219 206.070312 360.824219 205.515625 361.453125 204.960938 L 362.039062 205.621094 C 361.417969 206.183594 360.785156 206.738281 360.152344 207.292969 Z M 21.269531 207.199219 C 20.648438 206.648438 20.023438 206.085938 19.398438 205.523438 L 19.992188 204.867188 C 20.609375 205.429688 21.234375 205.984375 21.855469 206.546875 L 21.269531 207.207031 Z M 363.917969 203.9375 L 363.324219 203.28125 C 363.949219 202.71875 364.574219 202.15625 365.1875 201.59375 L 365.789062 202.25 C 365.167969 202.820312 364.550781 203.382812 363.925781 203.945312 Z M 17.542969 203.820312 C 16.929688 203.25 16.3125 202.679688 15.703125 202.109375 L 16.3125 201.464844 C 16.921875 202.035156 17.535156 202.605469 18.144531 203.171875 Z M 367.644531 200.539062 L 367.046875 199.894531 L 367.167969 199.785156 L 367.769531 200.433594 Z M 13.878906 200.378906 C 13.269531 199.800781 12.667969 199.214844 12.070312 198.636719 L 12.683594 198 C 13.285156 198.582031 13.886719 199.160156 14.488281 199.738281 Z M 10.273438 196.875 C 9.679688 196.28125 9.089844 195.695312 8.496094 195.101562 L 9.128906 194.480469 C 9.710938 195.074219 10.304688 195.65625 10.898438 196.25 L 10.273438 196.882812 Z M 10.273438 196.875 " fill-opacity="1" fill-rule="nonzero"/></g><g fill="#000000" fill-opacity="1"><g transform="translate(102.498571, 241.054539)"><g><path d="M 15.84375 0.25 C 13.25 0.25 10.925781 -0.316406 8.875 -1.453125 C 6.820312 -2.585938 5.210938 -4.175781 4.046875 -6.21875 C 2.878906 -8.269531 2.296875 -10.582031 2.296875 -13.15625 C 2.296875 -15.71875 2.878906 -18.015625 4.046875 -20.046875 C 5.210938 -22.078125 6.820312 -23.660156 8.875 -24.796875 C 10.925781 -25.929688 13.25 -26.5 15.84375 -26.5 C 18.113281 -26.5 20.140625 -26.054688 21.921875 -25.171875 C 23.703125 -24.285156 25.113281 -22.992188 26.15625 -21.296875 L 23.5 -19.5 C 22.632812 -20.800781 21.535156 -21.773438 20.203125 -22.421875 C 18.867188 -23.078125 17.414062 -23.40625 15.84375 -23.40625 C 13.945312 -23.40625 12.238281 -22.976562 10.71875 -22.125 C 9.207031 -21.269531 8.023438 -20.0625 7.171875 -18.5 C 6.328125 -16.9375 5.90625 -15.15625 5.90625 -13.15625 C 5.90625 -11.113281 6.328125 -9.316406 7.171875 -7.765625 C 8.023438 -6.222656 9.207031 -5.023438 10.71875 -4.171875 C 12.238281 -3.328125 13.945312 -2.90625 15.84375 -2.90625 C 17.414062 -2.90625 18.867188 -3.21875 20.203125 -3.84375 C 21.535156 -4.476562 22.632812 -5.445312 23.5 -6.75 L 26.15625 -4.953125 C 25.113281 -3.253906 23.691406 -1.960938 21.890625 -1.078125 C 20.097656 -0.191406 18.082031 0.25 15.84375 0.25 Z M 15.84375 0.25 "/></g></g></g><g fill="#000000" fill-opacity="1"><g transform="translate(130.644215, 241.054539)"><g><path d="M 14.15625 -26.5 C 17.582031 -26.5 20.210938 -25.640625 22.046875 -23.921875 C 23.878906 -22.203125 24.796875 -19.660156 24.796875 -16.296875 L 24.796875 0 L 21.40625 0 L 21.40625 -4.09375 C 20.601562 -2.726562 19.425781 -1.660156 17.875 -0.890625 C 16.320312 -0.128906 14.476562 0.25 12.34375 0.25 C 9.414062 0.25 7.082031 -0.445312 5.34375 -1.84375 C 3.613281 -3.25 2.75 -5.101562 2.75 -7.40625 C 2.75 -9.632812 3.554688 -11.429688 5.171875 -12.796875 C 6.785156 -14.160156 9.363281 -14.84375 12.90625 -14.84375 L 21.25 -14.84375 L 21.25 -16.453125 C 21.25 -18.710938 20.613281 -20.4375 19.34375 -21.625 C 18.082031 -22.8125 16.234375 -23.40625 13.796875 -23.40625 C 12.128906 -23.40625 10.53125 -23.128906 9 -22.578125 C 7.46875 -22.023438 6.148438 -21.265625 5.046875 -20.296875 L 3.453125 -22.953125 C 4.785156 -24.085938 6.382812 -24.960938 8.25 -25.578125 C 10.113281 -26.191406 12.082031 -26.5 14.15625 -26.5 Z M 12.90625 -2.546875 C 14.90625 -2.546875 16.617188 -3.003906 18.046875 -3.921875 C 19.484375 -4.835938 20.550781 -6.164062 21.25 -7.90625 L 21.25 -12.203125 L 13 -12.203125 C 8.5 -12.203125 6.25 -10.632812 6.25 -7.5 C 6.25 -5.96875 6.832031 -4.757812 8 -3.875 C 9.164062 -2.988281 10.800781 -2.546875 12.90625 -2.546875 Z M 12.90625 -2.546875 "/></g></g></g><g fill="#000000" fill-opacity="1"><g transform="translate(159.639697, 241.054539)"><g><path d="M 27.046875 -26.296875 L 15.34375 0 L 11.703125 0 L 0.046875 -26.296875 L 3.75 -26.296875 L 13.59375 -3.90625 L 23.546875 -26.296875 Z M 27.046875 -26.296875 "/></g></g></g><g fill="#000000" fill-opacity="1"><g transform="translate(185.985585, 241.054539)"><g><path d="M 27.84375 -12.046875 L 5.84375 -12.046875 C 6.050781 -9.316406 7.101562 -7.109375 9 -5.421875 C 10.894531 -3.742188 13.296875 -2.90625 16.203125 -2.90625 C 17.835938 -2.90625 19.335938 -3.195312 20.703125 -3.78125 C 22.066406 -4.363281 23.25 -5.21875 24.25 -6.34375 L 26.25 -4.046875 C 25.082031 -2.648438 23.625 -1.582031 21.875 -0.84375 C 20.125 -0.113281 18.195312 0.25 16.09375 0.25 C 13.394531 0.25 11.003906 -0.320312 8.921875 -1.46875 C 6.835938 -2.625 5.210938 -4.21875 4.046875 -6.25 C 2.878906 -8.28125 2.296875 -10.582031 2.296875 -13.15625 C 2.296875 -15.71875 2.851562 -18.015625 3.96875 -20.046875 C 5.09375 -22.078125 6.628906 -23.660156 8.578125 -24.796875 C 10.523438 -25.929688 12.71875 -26.5 15.15625 -26.5 C 17.582031 -26.5 19.757812 -25.929688 21.6875 -24.796875 C 23.625 -23.660156 25.144531 -22.082031 26.25 -20.0625 C 27.351562 -18.050781 27.90625 -15.75 27.90625 -13.15625 Z M 15.15625 -23.453125 C 12.613281 -23.453125 10.484375 -22.640625 8.765625 -21.015625 C 7.054688 -19.398438 6.082031 -17.296875 5.84375 -14.703125 L 24.5 -14.703125 C 24.269531 -17.296875 23.296875 -19.398438 21.578125 -21.015625 C 19.859375 -22.640625 17.71875 -23.453125 15.15625 -23.453125 Z M 15.15625 -23.453125 "/></g></g></g><g fill="#000000" fill-opacity="1"><g transform="translate(216.18091, 241.054539)"><g><path d="M 8.34375 -21.15625 C 9.175781 -22.914062 10.414062 -24.242188 12.0625 -25.140625 C 13.71875 -26.046875 15.765625 -26.5 18.203125 -26.5 L 18.203125 -23.046875 L 17.34375 -23.09375 C 14.582031 -23.09375 12.414062 -22.242188 10.84375 -20.546875 C 9.28125 -18.847656 8.5 -16.46875 8.5 -13.40625 L 8.5 0 L 4.953125 0 L 4.953125 -26.296875 L 8.34375 -26.296875 Z M 8.34375 -21.15625 "/></g></g></g><g fill="#000000" fill-opacity="1"><g transform="translate(235.827851, 241.054539)"><g><path d="M 18.34375 -26.5 C 21.644531 -26.5 24.269531 -25.539062 26.21875 -23.625 C 28.175781 -21.707031 29.15625 -18.914062 29.15625 -15.25 L 29.15625 0 L 25.59375 0 L 25.59375 -14.90625 C 25.59375 -17.632812 24.910156 -19.710938 23.546875 -21.140625 C 22.179688 -22.578125 20.234375 -23.296875 17.703125 -23.296875 C 14.867188 -23.296875 12.625 -22.453125 10.96875 -20.765625 C 9.320312 -19.085938 8.5 -16.765625 8.5 -13.796875 L 8.5 0 L 4.953125 0 L 4.953125 -26.296875 L 8.34375 -26.296875 L 8.34375 -21.453125 C 9.3125 -23.046875 10.65625 -24.285156 12.375 -25.171875 C 14.09375 -26.054688 16.082031 -26.5 18.34375 -26.5 Z M 18.34375 -26.5 "/></g></g></g><path stroke-linecap="butt" transform="matrix(0.75, 0, 0, 0.75, 14.309244, 93.92954)" fill="none" stroke-linejoin="miter" d="M 1.202258 56.8752 C 1.202258 55.526242 1.712675 54.640825 2.733509 54.203325 C 3.754342 53.7502 5.025175 53.521033 6.5408 53.521033 C 8.129342 53.521033 9.832467 53.661658 11.655384 53.942908 C 13.478301 54.203325 15.061634 54.333533 16.405384 54.333533 C 17.728301 54.333533 19.301218 54.203325 21.124135 53.942908 C 22.947052 53.661658 24.707468 53.521033 26.400177 53.521033 C 27.915802 53.521033 29.186635 53.7502 30.207469 54.203325 C 31.228302 54.640825 31.738719 55.526242 31.738719 56.8752 C 31.738719 57.849158 31.509552 58.588742 31.056427 59.088742 C 30.618927 59.5627 30.087677 60.182492 29.457469 60.942909 C 28.853302 61.703325 28.322052 62.885617 27.863719 64.489784 C 27.431427 66.073117 27.212677 68.416868 27.212677 71.521034 L 27.212677 111.656454 C 27.212677 112.828329 27.561635 113.609579 28.254344 114.000204 C 28.973094 114.390829 29.775177 114.588746 30.665802 114.588746 C 31.551219 114.588746 32.311635 114.588746 32.941844 114.588746 C 34.894969 114.588746 36.686636 113.880412 38.311636 112.474162 C 39.962678 111.04187 41.467886 109.281454 42.837678 107.19812 C 44.228303 105.114787 45.51997 103.031453 46.712678 100.94812 C 47.92622 98.843953 49.129345 97.083536 50.322053 95.677286 C 51.540803 94.244994 52.764762 93.526244 54.004345 93.526244 C 56.129345 93.526244 57.08247 94.708536 56.868929 97.073119 C 56.650179 99.41687 55.697054 103.619995 54.004345 109.672079 C 53.374137 112.057495 53.014762 114.161662 52.92622 115.984579 C 52.842887 117.807496 52.525178 119.239788 51.983512 120.281454 C 51.462678 121.302288 50.228303 121.812704 48.275178 121.812704 C 41.613719 121.812704 35.676219 121.672079 30.467885 121.390829 C 25.259552 121.130413 20.530385 121.000204 16.275176 121.000204 C 14.129343 121.000204 12.118926 121.130413 10.254342 121.390829 C 8.389759 121.672079 6.749134 121.812704 5.337675 121.812704 C 4.077259 121.812704 3.07205 121.583538 2.311634 121.130413 C 1.57205 120.698121 1.202258 119.807496 1.202258 118.458537 C 1.202258 117.484579 1.421008 116.755412 1.8533 116.281454 C 2.311634 115.781454 2.842884 115.151246 3.452259 114.390829 C 4.077259 113.630412 4.613717 112.458537 5.046009 110.875204 C 5.499134 109.271037 5.7283 106.91687 5.7283 103.812703 L 5.7283 71.521034 C 5.7283 68.416868 5.499134 66.073117 5.046009 64.489784 C 4.613717 62.885617 4.077259 61.703325 3.452259 60.942909 C 2.842884 60.182492 2.311634 59.5627 1.8533 59.088742 C 1.421008 58.588742 1.202258 57.849158 1.202258 56.8752 Z M 89.457473 121.812704 C 84.749139 121.812704 80.129347 120.880413 75.592888 119.015829 C 71.05643 117.146037 67.322054 114.218954 64.394971 110.224162 C 61.462679 106.208537 59.999137 100.958536 59.999137 94.468953 C 59.999137 88.958536 61.191846 84.140827 63.582471 80.015827 C 65.988721 75.875201 69.322055 72.651243 73.572055 70.349159 C 77.848097 68.026242 82.785597 66.864784 88.384556 66.864784 C 93.894973 66.864784 98.389765 67.541867 101.863723 68.885618 C 105.332474 70.208534 108.025182 71.911659 109.931432 73.994993 C 111.842891 76.078326 113.144974 78.218951 113.837683 80.406452 C 114.556433 82.578327 114.915808 84.468952 114.915808 86.073119 C 114.915808 90.521036 113.535599 94.146036 110.780391 96.942911 C 108.046015 99.744995 104.540807 101.781453 100.264765 103.062703 C 95.988723 104.343953 91.639764 104.984578 87.212681 104.984578 C 85.952264 104.984578 85.030389 105.427287 84.447056 106.317912 C 83.884556 107.208537 83.707472 108.239787 83.926222 109.411662 C 84.144972 110.562704 84.848097 111.583537 86.040806 112.474162 C 87.254347 113.359579 88.973098 113.807495 91.186639 113.807495 C 94.394973 113.807495 96.93664 113.22937 98.801223 112.083537 C 100.665807 110.911662 102.15539 109.57312 103.259557 108.078328 C 104.368932 106.557495 105.431432 105.224162 106.452265 104.07312 C 107.473099 102.922078 108.827266 102.349161 110.519974 102.349161 C 112.040807 102.349161 113.176224 102.812703 113.936641 103.750203 C 114.697058 104.682495 115.077266 105.724162 115.077266 106.875203 C 115.077266 109.890829 113.894974 112.515829 111.530391 114.750204 C 109.165807 116.963746 106.03039 118.698121 102.12414 119.958538 C 98.21789 121.192913 93.993931 121.812704 89.457473 121.812704 Z M 88.384556 73.672076 C 86.519972 73.672076 85.030389 74.78666 83.926222 77.021035 C 82.816847 79.234577 82.264764 82.208535 82.264764 85.94291 C 82.264764 89.677286 82.816847 92.656452 83.926222 94.896036 C 85.030389 97.109578 86.519972 98.213744 88.384556 98.213744 C 90.249139 98.213744 91.738723 97.109578 92.842889 94.896036 C 93.973098 92.656452 94.535598 89.677286 94.535598 85.94291 C 94.535598 82.208535 93.973098 79.234577 92.842889 77.021035 C 91.738723 74.78666 90.249139 73.672076 88.384556 73.672076 Z M 135.046017 121.812704 C 130.077267 121.812704 126.389767 120.349163 123.978308 117.416871 C 121.592891 114.468954 120.400183 110.953329 120.400183 106.875203 C 120.400183 100.906453 122.624141 96.218953 127.072058 92.812702 C 131.519975 89.380411 137.290809 86.906452 144.389768 85.390827 C 151.139768 83.979369 154.50956 81.765827 154.50956 78.750202 C 154.50956 77.578326 154.025185 76.437701 153.046018 75.328326 C 152.07206 74.22416 150.389768 73.672076 147.999143 73.672076 C 145.592893 73.672076 143.629351 74.323118 142.108518 75.625201 C 140.613726 76.906451 139.275184 78.369993 138.103309 80.015827 C 136.957476 81.646035 135.686642 83.109577 134.296017 84.41166 C 132.931434 85.69291 131.0981 86.333535 128.796017 86.333535 C 127.275183 86.333535 125.962683 85.802285 124.858517 84.739785 C 123.749141 83.672077 123.197058 82.385618 123.197058 80.864785 C 123.197058 77.84916 124.389767 75.297076 126.780392 73.213743 C 129.186642 71.109576 132.322059 69.526243 136.186642 68.463743 C 140.046018 67.401242 144.249143 66.864784 148.780393 66.864784 C 153.686643 66.864784 158.13456 67.646034 162.129352 69.208534 C 166.124144 70.750201 169.311644 73.343951 171.697061 76.989785 C 174.10852 80.635618 175.311645 85.614785 175.311645 91.932494 L 175.311645 103.812703 C 175.311645 106.91687 175.530395 109.271037 175.962687 110.875204 C 176.42102 112.458537 176.962687 113.630412 177.592895 114.390829 C 178.217895 115.151246 178.749145 115.781454 179.186645 116.281454 C 179.63977 116.755412 179.868937 117.484579 179.868937 118.458537 C 179.868937 119.807496 179.467895 120.698121 178.665812 121.130413 C 177.863728 121.583538 176.842895 121.812704 175.603312 121.812704 C 174.259561 121.812704 172.785603 121.672079 171.176228 121.390829 C 169.592895 121.130413 168.129353 121.000204 166.785603 121.000204 C 165.374144 121.000204 164.124144 121.062704 163.040811 121.192913 C 161.978311 121.323121 160.868936 121.479371 159.717894 121.651246 C 158.311644 121.843954 157.04081 121.672079 155.910602 121.130413 C 154.806435 120.609579 154.16581 119.630413 153.988727 118.198121 C 153.905393 116.765829 153.676227 115.812704 153.306435 115.333537 C 152.962685 114.838746 152.525185 114.588746 152.004352 114.588746 C 151.030393 114.588746 149.75956 115.192912 148.19706 116.411662 C 146.63456 117.604371 144.769976 118.807496 142.598101 120.021038 C 140.426226 121.218954 137.910601 121.812704 135.046017 121.812704 Z M 141.066851 101.406453 C 141.066851 103.984578 141.707476 105.833537 142.988726 106.937703 C 144.29081 108.047078 145.832476 108.599162 147.608518 108.599162 C 149.82206 108.599162 151.504352 107.640828 152.655393 105.734578 C 153.806435 103.82312 154.379352 101.578328 154.379352 98.994995 L 154.379352 92.614786 C 154.379352 90.208536 153.275185 89.578327 151.061643 90.729369 C 149.629352 91.442911 148.129351 92.224161 146.566851 93.073119 C 145.030393 93.916869 143.728309 94.958536 142.660601 96.198119 C 141.598101 97.432494 141.066851 99.16687 141.066851 101.406453 Z M 182.525187 118.458537 C 182.525187 117.484579 182.743937 116.755412 183.176229 116.281454 C 183.634562 115.781454 184.165812 115.151246 184.775187 114.390829 C 185.405396 113.630412 185.936646 112.458537 186.368937 110.875204 C 186.822062 109.271037 187.051229 106.91687 187.051229 103.812703 C 187.051229 99.713745 187.072062 96.750203 187.118937 94.927286 C 187.160604 93.104369 187.181437 91.771036 187.181437 90.922077 C 187.181437 90.078327 187.181437 89.119994 187.181437 88.057494 C 187.181437 85.672077 186.801229 84.010619 186.040812 83.078327 C 185.306437 82.146035 184.556437 81.416868 183.79602 80.896035 C 183.035604 80.354368 182.655395 79.494993 182.655395 78.323118 C 182.655395 77.000201 183.103312 76.09916 183.993937 75.625201 C 184.884562 75.125201 186.150187 74.703326 187.801229 74.354368 C 189.452271 73.984576 191.426229 73.401243 193.723104 72.593951 C 196.566855 71.531451 198.51998 70.578326 199.58248 69.729368 C 200.650188 68.885618 201.452272 68.203326 201.993938 67.682492 C 202.535605 67.140826 203.384563 66.864784 204.530397 66.864784 C 206.139772 66.864784 207.202272 67.583534 207.723105 69.015826 C 208.264772 70.427284 208.535605 72.109576 208.535605 74.062701 L 208.535605 74.614785 C 208.535605 76.828326 208.577272 77.91166 208.665814 77.869993 C 208.754355 77.828326 209.374147 76.828326 210.519981 74.875201 C 212.040814 72.291868 214.155397 70.317909 216.868939 68.948118 C 219.582481 67.562701 222.176231 66.864784 224.65019 66.864784 C 229.551232 66.864784 232.71269 67.922076 234.11894 70.026243 C 235.551232 72.109576 235.598107 75.146035 234.249149 79.140827 C 233.186649 82.328327 232.233524 84.531452 231.384565 85.744994 C 230.540815 86.94291 229.717898 87.53666 228.910607 87.53666 C 228.02519 87.53666 227.046023 87.00541 225.983523 85.94291 C 224.921023 84.88041 223.738731 83.838744 222.436648 82.81791 C 221.155398 81.776243 219.582481 81.25541 217.717898 81.25541 C 216.650189 81.25541 215.384564 81.614785 213.905397 82.328327 C 212.452272 83.047077 211.191856 84.338744 210.129356 86.203327 C 209.066855 88.06791 208.535605 90.692911 208.535605 94.078328 L 208.535605 103.812703 C 208.535605 106.91687 208.754355 109.271037 209.186647 110.875204 C 209.64498 112.458537 210.176231 113.630412 210.780397 114.390829 C 211.410606 115.151246 211.941856 115.781454 212.379356 116.281454 C 212.832481 116.755412 213.061647 117.484579 213.061647 118.458537 C 213.061647 119.807496 212.551231 120.698121 211.530397 121.130413 C 210.509564 121.583538 209.243939 121.812704 207.723105 121.812704 C 206.030397 121.812704 204.26998 121.672079 202.447063 121.390829 C 200.624147 121.130413 199.05123 121.000204 197.728313 121.000204 C 196.384563 121.000204 194.801229 121.130413 192.978313 121.390829 C 191.176229 121.672079 189.473104 121.812704 187.863729 121.812704 C 186.348104 121.812704 185.077271 121.583538 184.056437 121.130413 C 183.035604 120.698121 182.525187 119.807496 182.525187 118.458537 Z M 238.525191 118.458537 C 238.525191 117.484579 238.743941 116.755412 239.176232 116.281454 C 239.634566 115.781454 240.165816 115.151246 240.769983 114.390829 C 241.400191 113.630412 241.931441 112.458537 242.368941 110.875204 C 242.822066 109.271037 243.051233 106.91687 243.051233 103.812703 C 243.051233 99.713745 243.072066 96.750203 243.113733 94.927286 C 243.160608 93.104369 243.181441 91.771036 243.181441 90.922077 C 243.181441 90.078327 243.181441 89.119994 243.181441 88.057494 C 243.181441 85.672077 242.801233 84.010619 242.040816 83.078327 C 241.301233 82.146035 240.556441 81.416868 239.796024 80.896035 C 239.035607 80.354368 238.655399 79.494993 238.655399 78.323118 C 238.655399 77.000201 239.098107 76.09916 239.988732 75.625201 C 240.879358 75.125201 242.150191 74.703326 243.801233 74.354368 C 245.447066 73.984576 247.421025 73.401243 249.723108 72.593951 C 252.566858 71.531451 254.519983 70.578326 255.582483 69.729368 C 256.644984 68.885618 257.447067 68.203326 257.988734 67.682492 C 258.535609 67.140826 259.379359 66.864784 260.5304 66.864784 C 262.134567 66.864784 263.197067 67.583534 263.717901 69.015826 C 264.264776 70.427284 264.535609 72.109576 264.535609 74.062701 L 264.535609 75.135618 C 264.535609 76.369993 264.749151 76.989785 265.186651 76.989785 C 265.639776 76.989785 266.358526 76.479368 267.332484 75.458535 C 268.311651 74.44291 269.566859 73.271035 271.108526 71.942909 C 272.671026 70.599159 274.53561 69.416868 276.707485 68.396034 C 278.900193 67.375201 281.374152 66.864784 284.12936 66.864784 C 288.296027 66.864784 291.441861 67.755409 293.572069 69.536659 C 295.717903 71.317909 297.171028 73.541868 297.931445 76.208535 C 298.691861 78.88041 299.07207 81.588743 299.07207 84.34916 L 299.07207 103.812703 C 299.07207 106.91687 299.285611 109.271037 299.723111 110.875204 C 300.176236 112.458537 300.707486 113.630412 301.316861 114.390829 C 301.94707 115.151246 302.47832 115.781454 302.910612 116.281454 C 303.368945 116.755412 303.592903 117.484579 303.592903 118.458537 C 303.592903 119.807496 303.217903 120.698121 302.457487 121.130413 C 301.69707 121.583538 300.69707 121.812704 299.462695 121.812704 C 298.202278 121.812704 296.749153 121.672079 295.098111 121.390829 C 293.473111 121.130413 291.900194 121.000204 290.379361 121.000204 C 288.967902 121.000204 287.754361 121.062704 286.733527 121.192913 C 285.712694 121.323121 284.618944 121.479371 283.447069 121.651246 C 281.665819 121.843954 280.22311 121.453329 279.118943 120.479371 C 278.009568 119.500204 277.457485 118.125204 277.457485 116.343954 L 277.457485 94.468953 C 277.457485 90.198119 277.009568 86.953327 276.124152 84.739785 C 275.233526 82.500202 273.639776 81.385618 271.337693 81.385618 C 269.275193 81.385618 267.624151 82.437702 266.389776 84.541869 C 265.150192 86.625202 264.535609 90.911661 264.535609 97.401244 L 264.535609 103.812703 C 264.535609 106.91687 264.749151 109.271037 265.186651 110.875204 C 265.639776 112.458537 266.171026 113.630412 266.780401 114.390829 C 267.410609 115.151246 267.941859 115.781454 268.374151 116.281454 C 268.832484 116.755412 269.056443 117.484579 269.056443 118.458537 C 269.056443 119.807496 268.546026 120.698121 267.530401 121.130413 C 266.509568 121.583538 265.238734 121.812704 263.717901 121.812704 C 262.025192 121.812704 260.269984 121.672079 258.447067 121.390829 C 256.62415 121.130413 255.051233 121.000204 253.728317 121.000204 C 252.379358 121.000204 250.796025 121.130413 248.973108 121.390829 C 247.171025 121.672079 245.467899 121.812704 243.863733 121.812704 C 242.342899 121.812704 241.077274 121.583538 240.056441 121.130413 C 239.035607 120.698121 238.525191 119.807496 238.525191 118.458537 Z M 321.848113 121.000204 C 320.525196 121.000204 318.952279 121.130413 317.129363 121.390829 C 315.306446 121.672079 313.592904 121.812704 311.983529 121.812704 C 310.467904 121.812704 309.19707 121.583538 308.176237 121.130413 C 307.155404 120.698121 306.644987 119.807496 306.644987 118.458537 C 306.644987 117.484579 306.863737 116.755412 307.296029 116.281454 C 307.754362 115.781454 308.296029 115.151246 308.926237 114.390829 C 309.556445 113.630412 310.087695 112.458537 310.519987 110.875204 C 310.97832 109.271037 311.202279 106.91687 311.202279 103.812703 C 311.202279 99.713745 311.223112 96.750203 311.269987 94.927286 C 311.311654 93.104369 311.332487 91.771036 311.332487 90.922077 C 311.332487 90.078327 311.332487 89.119994 311.332487 88.057494 C 311.332487 85.672077 310.952279 84.010619 310.19707 83.078327 C 309.436654 82.146035 308.676237 81.416868 307.91582 80.896035 C 307.155404 80.354368 306.775195 79.494993 306.775195 78.323118 C 306.775195 77.000201 307.223112 76.09916 308.113737 75.625201 C 308.999154 75.125201 310.269987 74.703326 311.921029 74.354368 C 313.566862 73.984576 315.546029 73.401243 317.842904 72.593951 C 320.686654 71.531451 322.63978 70.578326 323.70228 69.729368 C 324.790821 68.885618 325.592905 68.203326 326.113738 67.682492 C 326.655405 67.140826 327.499155 66.864784 328.650197 66.864784 C 330.259572 66.864784 331.322072 67.583534 331.842905 69.015826 C 332.384572 70.427284 332.655405 72.109576 332.655405 74.062701 L 332.655405 103.812703 C 332.655405 106.91687 332.874155 109.271037 333.306447 110.875204 C 333.759572 112.458537 334.29603 113.630412 334.900197 114.390829 C 335.530405 115.151246 336.061655 115.781454 336.493947 116.281454 C 336.95228 116.755412 337.181447 117.484579 337.181447 118.458537 C 337.181447 119.807496 336.67103 120.698121 335.650197 121.130413 C 334.629364 121.583538 333.35853 121.812704 331.842905 121.812704 C 330.17103 121.812704 328.42103 121.672079 326.603321 121.390829 C 324.780405 121.130413 323.191863 121.000204 321.848113 121.000204 Z M 306.644987 63.125201 C 305.75957 60.453325 306.223112 57.567908 308.046029 54.463742 C 309.868945 51.359575 312.644987 48.833533 316.379362 46.880408 C 319.504363 45.276241 322.348113 44.474158 324.910613 44.474158 C 328.837697 44.474158 331.374155 46.067908 332.525197 49.255408 C 333.499155 52.010616 333.07728 54.911658 331.254363 57.948117 C 329.431447 60.963742 326.655405 63.494992 322.92103 65.531451 C 319.733529 67.140826 316.848113 67.942909 314.264779 67.942909 C 310.441862 67.942909 307.905404 66.333534 306.644987 63.125201 Z M 339.723114 118.458537 C 339.723114 117.484579 339.936656 116.755412 340.374156 116.281454 C 340.827281 115.781454 341.358531 115.151246 341.967906 114.390829 C 342.598114 113.630412 343.129364 112.458537 343.561656 110.875204 C 344.019989 109.271037 344.243948 106.91687 344.243948 103.812703 C 344.243948 99.713745 344.269989 96.750203 344.311656 94.927286 C 344.353323 93.104369 344.374156 91.771036 344.374156 90.922077 C 344.374156 90.078327 344.374156 89.119994 344.374156 88.057494 C 344.374156 85.672077 343.999156 84.010619 343.238739 83.078327 C 342.499156 82.146035 341.749156 81.416868 340.988739 80.896035 C 340.233531 80.354368 339.853322 79.494993 339.853322 78.323118 C 339.853322 77.000201 340.296031 76.09916 341.186656 75.625201 C 342.077281 75.125201 343.348114 74.703326 344.993948 74.354368 C 346.644989 73.984576 348.618948 73.401243 350.921031 72.593951 C 353.759573 71.531451 355.712698 70.578326 356.780407 69.729368 C 357.842907 68.885618 358.64499 68.203326 359.186657 67.682492 C 359.728324 67.140826 360.577282 66.864784 361.728324 66.864784 C 363.332491 66.864784 364.394991 67.583534 364.915824 69.015826 C 365.457491 70.427284 365.728324 72.109576 365.728324 74.062701 L 365.728324 75.135618 C 365.728324 76.369993 365.947074 76.989785 366.379366 76.989785 C 366.837699 76.989785 367.551241 76.479368 368.530408 75.458535 C 369.504366 74.44291 370.764783 73.271035 372.306449 71.942909 C 373.86895 70.599159 375.733533 69.416868 377.905408 68.396034 C 380.098117 67.375201 382.572075 66.864784 385.327284 66.864784 C 389.493951 66.864784 392.639784 67.755409 394.764784 69.536659 C 396.915826 71.317909 398.368951 73.541868 399.129368 76.208535 C 399.884576 78.88041 400.264785 81.588743 400.264785 84.34916 L 400.264785 103.812703 C 400.264785 106.91687 400.483535 109.271037 400.915826 110.875204 C 401.37416 112.458537 401.90541 113.630412 402.514785 114.390829 C 403.139785 115.151246 403.676243 115.781454 404.108535 116.281454 C 404.56166 116.755412 404.790827 117.484579 404.790827 118.458537 C 404.790827 119.807496 404.410618 120.698121 403.650202 121.130413 C 402.894993 121.583538 401.894993 121.812704 400.65541 121.812704 C 399.400201 121.812704 397.947076 121.672079 396.296034 121.390829 C 394.665826 121.130413 393.092909 121.000204 391.577284 121.000204 C 390.165826 121.000204 388.952284 121.062704 387.931451 121.192913 C 386.910617 121.323121 385.811659 121.479371 384.639784 121.651246 C 382.863742 121.843954 381.421033 121.453329 380.311658 120.479371 C 379.207492 119.500204 378.655408 118.125204 378.655408 116.343954 L 378.655408 94.468953 C 378.655408 90.198119 378.207492 86.953327 377.316866 84.739785 C 376.426241 82.500202 374.832491 81.385618 372.535616 81.385618 C 370.473116 81.385618 368.822074 82.437702 367.587699 84.541869 C 366.348116 86.625202 365.728324 90.911661 365.728324 97.401244 L 365.728324 103.812703 C 365.728324 106.91687 365.947074 109.271037 366.379366 110.875204 C 366.837699 112.458537 367.368949 113.630412 367.978324 114.390829 C 368.603324 115.151246 369.134574 115.781454 369.572074 116.281454 C 370.025199 116.755412 370.254366 117.484579 370.254366 118.458537 C 370.254366 119.807496 369.743949 120.698121 368.723116 121.130413 C 367.702283 121.583538 366.436657 121.812704 364.915824 121.812704 C 363.223116 121.812704 361.467907 121.672079 359.64499 121.390829 C 357.822074 121.130413 356.249157 121.000204 354.921032 121.000204 C 353.577282 121.000204 351.993948 121.130413 350.171031 121.390829 C 348.368948 121.672079 346.665823 121.812704 345.061656 121.812704 C 343.540823 121.812704 342.269989 121.583538 341.249156 121.130413 C 340.233531 120.698121 339.723114 119.807496 339.723114 118.458537 Z M 433.84812 136.593955 C 429.311662 136.593955 424.97312 136.213747 420.827286 135.45333 C 416.707494 134.713747 413.311661 133.380413 410.639785 131.448122 C 407.973118 129.541872 406.634577 126.85958 406.634577 123.406454 C 406.634577 121.802288 407.233535 120.177288 408.426244 118.526246 C 409.639785 116.875204 411.712702 116.052287 414.644994 116.052287 C 417.051244 116.052287 418.900203 116.744996 420.176244 118.135621 C 421.478328 119.500204 422.639786 121.078329 423.66062 122.854371 C 424.681453 124.635621 425.94187 126.208538 427.436661 127.573121 C 428.957495 128.963746 431.092912 129.656455 433.84812 129.656455 C 437.150204 129.656455 439.348121 129.151247 440.457496 128.130413 C 441.561662 127.10958 442.118954 125.880413 442.118954 124.448121 C 442.118954 123.125204 441.447079 122.104371 440.098121 121.390829 C 438.775204 120.698121 437.16062 120.151246 435.249162 119.760621 C 433.337703 119.349163 431.41062 118.906454 429.457495 118.427287 C 427.50437 117.927287 425.853328 117.255412 424.509578 116.411662 C 423.181453 115.562704 422.519994 114.338746 422.519994 112.734579 C 422.519994 111.213745 423.228328 110.01062 424.639786 109.119995 C 426.072078 108.22937 427.228328 107.786662 428.118953 107.786662 L 426.655411 107.526245 C 421.144994 106.547078 416.519994 104.35437 412.790827 100.94812 C 409.056452 97.521036 407.191868 93.177286 407.191868 87.927285 C 407.191868 81.896035 409.71791 77.010618 414.775202 73.281451 C 419.853328 69.547076 426.525203 67.682492 434.796037 67.682492 C 437.353329 67.682492 439.988746 67.724159 442.702287 67.812701 C 445.415829 67.896034 447.889788 67.854367 450.124163 67.682492 C 452.254371 67.484576 454.087705 67.281451 455.624163 67.062701 C 457.186663 66.843951 458.457497 66.734576 459.436664 66.734576 C 460.952289 66.734576 461.993955 67.010617 462.561664 67.552284 C 463.144997 68.073117 463.436664 69.093951 463.436664 70.609576 C 463.436664 72.021034 463.124164 73.000201 462.493955 73.541868 C 461.88458 74.062701 460.962705 74.323118 459.72833 74.323118 C 458.837705 74.323118 457.764788 74.213743 456.504372 73.994993 C 455.269997 73.781451 453.801247 73.494993 452.108538 73.151243 C 455.582497 74.125201 458.16583 76.078326 459.858539 79.010618 C 461.551247 81.937702 462.394997 84.91166 462.394997 87.927285 C 462.394997 94.067911 460.280414 99.005411 456.051247 102.739786 C 451.816871 106.468953 446.197079 108.338745 439.186662 108.338745 C 436.69187 108.338745 434.91062 108.630412 433.84812 109.218954 C 432.78562 109.781454 432.212703 110.463745 432.124162 111.265829 C 432.03562 112.588745 433.144995 113.208537 435.447079 113.119995 C 437.483537 113.036662 439.613746 112.547079 441.822079 111.656454 C 444.061663 110.765829 447.186663 110.32312 451.19708 110.32312 C 455.191872 110.32312 458.254372 111.255412 460.379372 113.119995 C 462.504372 114.989787 463.566872 117.614787 463.566872 121.000204 C 463.566872 125.448121 461.25958 129.161663 456.63458 132.130413 C 452.014788 135.104372 444.415829 136.593955 433.84812 136.593955 Z M 427.988745 88.187702 C 427.988745 92.463744 428.608537 95.911661 429.84812 98.541869 C 431.082495 101.16687 432.733537 102.47937 434.796037 102.47937 C 436.832495 102.47937 438.47312 101.16687 439.707496 98.541869 C 440.967912 95.911661 441.598121 92.463744 441.598121 88.187702 C 441.598121 84.021035 440.967912 80.625202 439.707496 78.000201 C 438.47312 75.375201 436.832495 74.062701 434.796037 74.062701 C 432.733537 74.062701 431.082495 75.375201 429.84812 78.000201 C 428.608537 80.625202 427.988745 84.021035 427.988745 88.187702 Z M 427.988745 88.187702 " stroke="#000000" stroke-width="4.999988" stroke-opacity="1" stroke-miterlimit="4"/></svg>